{
  "source": "C:\\Users\\Peter\\Desktop\\stuff\\MIUN\\quantitative_research\\video_compression\\videos\\HEVC_CLASS_B\\BasketballDrive_1920x1080_50.y4m",
  "output": "C:\\Users\\Peter\\Desktop\\stuff\\MIUN\\quantitative_research\\video_compression\\compressed_videos\\HEVC_CLASS_B\\av1\\4\\BasketballDrive_1920x1080_50_av1.mkv",
  "codec": "av1",
  "ok": "Input #0, yuv4mpegpipe, from 'C:\\Users\\Peter\\Desktop\\stuff\\MIUN\\quantitative_research\\video_compression\\videos\\HEVC_CLASS_B\\BasketballDrive_1920x1080_50.y4m':\n  Duration: 00:00:10.00, start: 0.000000, bitrate: 1244162 kb/s\n  Stream #0:0: Video: rawvideo (I420 / 0x30323449), yuv420p(progressive), 1920x1080, 50 fps, 50 tbr, 50 tbn\n[out#0/matroska @ 000002cdd4689c40] Codec AVOption b:a (set bitrate (in bits/s)) has not been used for any stream. The most likely reason is either wrong type (e.g. a video option with no video streams) or that it is a private option of some decoder which was not actually used for any stream.\nStream mapping:\n  Stream #0:0 -> #0:0 (rawvideo (native) -> av1 (libsvtav1))\nPress [q] to stop, [?] for help\nSvt[info]: -------------------------------------------\nSvt[info]: SVT [version]:\tSVT-AV1 Encoder Lib v3.1.0-19-g6ecfe8ec\nSvt[info]: SVT [build]  :\tGCC 15.2.0\t 64 bit\nSvt[info]: LIB Build date: Aug 17 2025 11:37:13\nSvt[info]: -------------------------------------------\n[libsvtav1 @ 000002cdd468c100] Specified chroma sample location center is unsupported on the AV1 bit stream level. Usage of a container that allows passing this information - such as Matroska - is recommended.\nSvt[info]: Level of Parallelism: 5\nSvt[info]: Number of PPCS 93\nSvt[info]: [asm level on system : up to avx2]\nSvt[info]: [asm level selected : up to avx2]\nSvt[info]: -------------------------------------------\nSvt[info]: SVT [config]: main profile\ttier (auto)\tlevel (auto)\nSvt[info]: SVT [config]: width / height / fps numerator / fps denominator \t\t: 1920 / 1080 / 50 / 1\nSvt[info]: SVT [config]: bit-depth / color format \t\t\t\t\t: 8 / YUV420\nSvt[info]: SVT [config]: preset / tune / pred struct \t\t\t\t\t: 4 / PSNR / random access\nSvt[info]: SVT [config]: gop size / mini-gop size / key-frame type \t\t\t: 321 / 16 / key frame\nSvt[info]: SVT [config]: BRC mode / target bitrate (kbps)\t\t\t\t: VBR / 4000 \nSvt[info]: SVT [config]: AQ mode / Variance Boost \t\t\t\t\t: 2 / 0\nSvt[info]: SVT [config]: sharpness / luminance-based QP bias \t\t\t\t: 0 / 0\nSvt[info]: SVT [config]: QP scale compress strength \t\t\t\t\t: 0\nSvt[info]: -------------------------------------------\nOutput #0, matroska, to 'C:\\Users\\Peter\\Desktop\\stuff\\MIUN\\quantitative_research\\video_compression\\compressed_videos\\HEVC_CLASS_B\\av1\\4\\BasketballDrive_1920x1080_50_av1.mkv':\n  Metadata:\n    encoder         : Lavf62.3.100\n  Stream #0:0: Video: av1 (AV01 / 0x31305641), yuv420p(tv, progressive), 1920x1080, q=2-31, 4000 kb/s, 50 fps, 1k tbn\n    Metadata:\n      encoder         : Lavc62.11.100 libsvtav1\n    Side data:\n      cpb: bitrate max/min/avg: 0/0/4000000 buffer size: 4000000 vbv_delay: N/A\nframe=    0 fps=0.0 q=0.0 size=       0KiB time=N/A bitrate=N/A speed=N/A elapsed=0:00:00.51    \nframe=    0 fps=0.0 q=0.0 size=       0KiB time=N/A bitrate=N/A speed=N/A elapsed=0:00:01.31    \nframe=    0 fps=0.0 q=0.0 size=       0KiB time=N/A bitrate=N/A speed=N/A elapsed=0:00:02.11    \nframe=    0 fps=0.0 q=0.0 size=       0KiB time=N/A bitrate=N/A speed=N/A elapsed=0:00:02.66    \nframe=    0 fps=0.0 q=0.0 size=       0KiB time=N/A bitrate=N/A speed=N/A elapsed=0:00:03.19    \nframe=    0 fps=0.0 q=0.0 size=       0KiB time=N/A bitrate=N/A speed=N/A elapsed=0:00:03.70    \nframe=    0 fps=0.0 q=0.0 size=       0KiB time=N/A bitrate=N/A speed=N/A elapsed=0:00:04.25    \nframe=    0 fps=0.0 q=0.0 size=       0KiB time=N/A bitrate=N/A speed=N/A elapsed=0:00:04.79    \nframe=    0 fps=0.0 q=0.0 size=       0KiB time=N/A bitrate=N/A speed=N/A elapsed=0:00:05.34    \nframe=    0 fps=0.0 q=0.0 size=       0KiB time=N/A bitrate=N/A speed=N/A elapsed=0:00:05.93    \nframe=    0 fps=0.0 q=0.0 size=       0KiB time=N/A bitrate=N/A speed=N/A elapsed=0:00:06.60    \nframe=    0 fps=0.0 q=0.0 size=       0KiB time=N/A bitrate=N/A speed=N/A elapsed=0:00:07.98    \nframe=    0 fps=0.0 q=0.0 size=       0KiB time=N/A bitrate=N/A speed=N/A elapsed=0:00:09.26    \nframe=    0 fps=0.0 q=0.0 size=       0KiB time=N/A bitrate=N/A speed=N/A elapsed=0:00:10.11    \nframe=    0 fps=0.0 q=0.0 size=       0KiB time=N/A bitrate=N/A speed=N/A elapsed=0:00:10.83    \nframe=    1 fps=0.1 q=19.0 size=       1KiB time=00:00:00.00 bitrate=N/A speed=   0x elapsed=0:00:11.53    \nframe=    1 fps=0.1 q=19.0 size=       1KiB time=00:00:00.00 bitrate=N/A speed=   0x elapsed=0:00:12.29    \nframe=    1 fps=0.1 q=19.0 size=       1KiB time=00:00:00.00 bitrate=N/A speed=   0x elapsed=0:00:13.07    \nframe=    1 fps=0.1 q=19.0 size=       1KiB time=00:00:00.00 bitrate=N/A speed=   0x elapsed=0:00:13.83    \nframe=    1 fps=0.1 q=19.0 size=       1KiB time=00:00:00.00 bitrate=N/A speed=   0x elapsed=0:00:14.60    \nframe=    1 fps=0.1 q=19.0 size=       1KiB time=00:00:00.00 bitrate=N/A speed=   0x elapsed=0:00:15.35    \nframe=    4 fps=0.2 q=44.0 size=       1KiB time=00:00:00.04 bitrate= 112.4kbits/s speed=0.00247x elapsed=0:00:16.17    \nframe=    6 fps=0.4 q=42.0 size=       1KiB time=00:00:00.08 bitrate=  56.2kbits/s speed=0.0047x elapsed=0:00:17.01    \nframe=    7 fps=0.4 q=40.0 size=       1KiB time=00:00:00.12 bitrate=  37.5kbits/s speed=0.00674x elapsed=0:00:17.80    \nframe=    8 fps=0.4 q=40.0 size=       1KiB time=00:00:00.12 bitrate=  37.5kbits/s speed=0.00645x elapsed=0:00:18.61    \nframe=    9 fps=0.5 q=35.0 size=       1KiB time=00:00:00.14 bitrate=  32.1kbits/s speed=0.00718x elapsed=0:00:19.50    \nframe=   11 fps=0.5 q=39.0 size=       1KiB time=00:00:00.20 bitrate=  22.5kbits/s speed=0.00982x elapsed=0:00:20.37    \nframe=   13 fps=0.6 q=37.0 size=       1KiB time=00:00:00.22 bitrate=  20.4kbits/s speed=0.0104x elapsed=0:00:21.19    \nframe=   16 fps=0.7 q=38.0 size=       1KiB time=00:00:00.30 bitrate=  15.0kbits/s speed=0.0136x elapsed=0:00:22.07    \nframe=   16 fps=0.7 q=38.0 size=       1KiB time=00:00:00.30 bitrate=  15.0kbits/s speed=0.0131x elapsed=0:00:22.96    \nframe=   17 fps=0.7 q=24.0 size=       1KiB time=00:00:00.32 bitrate=  14.1kbits/s speed=0.0136x elapsed=0:00:23.53    \nframe=   18 fps=0.7 q=37.0 size=       1KiB time=00:00:00.34 bitrate=  13.2kbits/s speed=0.0141x elapsed=0:00:24.05    \nframe=   20 fps=0.8 q=37.0 size=       1KiB time=00:00:00.38 bitrate=  11.8kbits/s speed=0.0154x elapsed=0:00:24.59    \nframe=   20 fps=0.8 q=37.0 size=       1KiB time=00:00:00.38 bitrate=  11.8kbits/s speed=0.0151x elapsed=0:00:25.19    \nframe=   21 fps=0.8 q=39.0 size=       1KiB time=00:00:00.40 bitrate=  11.2kbits/s speed=0.0155x elapsed=0:00:25.74    \nframe=   22 fps=0.8 q=35.0 size=       1KiB time=00:00:00.42 bitrate=  10.7kbits/s speed=0.016x elapsed=0:00:26.28    \nframe=   22 fps=0.8 q=35.0 size=       1KiB time=00:00:00.42 bitrate=  10.7kbits/s speed=0.0157x elapsed=0:00:26.82    \nframe=   23 fps=0.8 q=38.0 size=       1KiB time=00:00:00.44 bitrate=  10.2kbits/s speed=0.0161x elapsed=0:00:27.36    \nframe=   24 fps=0.9 q=35.0 size=       1KiB time=00:00:00.46 bitrate=   9.8kbits/s speed=0.0165x elapsed=0:00:27.88    \nframe=   25 fps=0.9 q=35.0 size=       1KiB time=00:00:00.48 bitrate=   9.4kbits/s speed=0.0169x elapsed=0:00:28.42    \nframe=   25 fps=0.9 q=35.0 size=       1KiB time=00:00:00.48 bitrate=   9.4kbits/s speed=0.0166x elapsed=0:00:28.95    \nframe=   26 fps=0.9 q=35.0 size=       1KiB time=00:00:00.50 bitrate=   9.0kbits/s speed=0.017x elapsed=0:00:29.47    \nframe=   27 fps=0.9 q=39.0 size=       1KiB time=00:00:00.52 bitrate=   8.6kbits/s speed=0.0173x elapsed=0:00:29.99    \nframe=   28 fps=0.9 q=34.0 size=       1KiB time=00:00:00.54 bitrate=   8.3kbits/s speed=0.0177x elapsed=0:00:30.52    \nframe=   29 fps=0.9 q=37.0 size=       1KiB time=00:00:00.56 bitrate=   8.0kbits/s speed=0.018x elapsed=0:00:31.10    \nframe=   29 fps=0.9 q=37.0 size=       1KiB time=00:00:00.56 bitrate=   8.0kbits/s speed=0.0177x elapsed=0:00:31.64    \nframe=   30 fps=0.9 q=35.0 size=       1KiB time=00:00:00.58 bitrate=   7.8kbits/s speed=0.018x elapsed=0:00:32.20    \nframe=   31 fps=0.9 q=40.0 size=       1KiB time=00:00:00.60 bitrate=   7.5kbits/s speed=0.0183x elapsed=0:00:32.73    \nframe=   33 fps=1.0 q=26.0 size=       1KiB time=00:00:00.62 bitrate=   7.3kbits/s speed=0.0187x elapsed=0:00:33.24    \nframe=   33 fps=1.0 q=26.0 size=       1KiB time=00:00:00.64 bitrate=   7.0kbits/s speed=0.0189x elapsed=0:00:33.80    \nframe=   34 fps=1.0 q=35.0 size=       1KiB time=00:00:00.66 bitrate=   6.8kbits/s speed=0.0192x elapsed=0:00:34.38    \nframe=   35 fps=1.0 q=39.0 size=       1KiB time=00:00:00.68 bitrate=   6.6kbits/s speed=0.0194x elapsed=0:00:34.97    \nframe=   35 fps=1.0 q=39.0 size=       1KiB time=00:00:00.68 bitrate=   6.6kbits/s speed=0.0191x elapsed=0:00:35.53    \nframe=   36 fps=1.0 q=36.0 size=       1KiB time=00:00:00.70 bitrate=   6.4kbits/s speed=0.0194x elapsed=0:00:36.05    \nframe=   36 fps=1.0 q=36.0 size=       1KiB time=00:00:00.70 bitrate=   6.4kbits/s speed=0.0191x elapsed=0:00:36.57    \nframe=   37 fps=1.0 q=39.0 size=       1KiB time=00:00:00.72 bitrate=   6.2kbits/s speed=0.0194x elapsed=0:00:37.13    \nframe=   37 fps=1.0 q=39.0 size=       1KiB time=00:00:00.72 bitrate=   6.2kbits/s speed=0.0191x elapsed=0:00:37.72    \nframe=   38 fps=1.0 q=36.0 size=       1KiB time=00:00:00.74 bitrate=   6.1kbits/s speed=0.0193x elapsed=0:00:38.26    \nframe=   38 fps=1.0 q=36.0 size=       1KiB time=00:00:00.74 bitrate=   6.1kbits/s speed=0.0191x elapsed=0:00:38.82    \nframe=   39 fps=1.0 q=38.0 size=       1KiB time=00:00:00.76 bitrate=   5.9kbits/s speed=0.0193x elapsed=0:00:39.41    \nframe=   39 fps=1.0 q=38.0 size=       1KiB time=00:00:00.76 bitrate=   5.9kbits/s speed=0.019x elapsed=0:00:39.97    \nframe=   40 fps=1.0 q=36.0 size=       1KiB time=00:00:00.78 bitrate=   5.8kbits/s speed=0.0192x elapsed=0:00:40.52    \nframe=   40 fps=1.0 q=36.0 size=       1KiB time=00:00:00.78 bitrate=   5.8kbits/s speed=0.019x elapsed=0:00:41.06    \nframe=   42 fps=1.0 q=36.0 size=       1KiB time=00:00:00.82 bitrate=   5.5kbits/s speed=0.0197x elapsed=0:00:41.58    \nframe=   43 fps=1.0 q=40.0 size=       1KiB time=00:00:00.84 bitrate=   5.4kbits/s speed=0.0199x elapsed=0:00:42.14    \nframe=   43 fps=1.0 q=40.0 size=       1KiB time=00:00:00.84 bitrate=   5.4kbits/s speed=0.0197x elapsed=0:00:42.66    \nframe=   44 fps=1.0 q=37.0 size=       1KiB time=00:00:00.86 bitrate=   5.2kbits/s speed=0.0199x elapsed=0:00:43.18    \nframe=   46 fps=1.1 q=37.0 size=       1KiB time=00:00:00.90 bitrate=   5.0kbits/s speed=0.0206x elapsed=0:00:43.78    \nframe=   48 fps=1.1 q=38.0 size=       1KiB time=00:00:00.90 bitrate=   5.0kbits/s speed=0.0203x elapsed=0:00:44.35    \nframe=   49 fps=1.1 q=23.0 size=       1KiB time=00:00:00.96 bitrate=   4.7kbits/s speed=0.0214x elapsed=0:00:44.89    \nframe=   50 fps=1.1 q=37.0 size=       1KiB time=00:00:00.98 bitrate=   4.6kbits/s speed=0.0216x elapsed=0:00:45.45    \nframe=   50 fps=1.1 q=37.0 size=       1KiB time=00:00:00.98 bitrate=   4.6kbits/s speed=0.0213x elapsed=0:00:46.02    \nframe=   51 fps=1.1 q=40.0 size=       1KiB time=00:00:01.00 bitrate=   4.5kbits/s speed=0.0215x elapsed=0:00:46.58    \nframe=   51 fps=1.1 q=40.0 size=       1KiB time=00:00:01.00 bitrate=   4.5kbits/s speed=0.0212x elapsed=0:00:47.12    \nframe=   52 fps=1.1 q=38.0 size=       1KiB time=00:00:01.02 bitrate=   4.4kbits/s speed=0.0214x elapsed=0:00:47.66    \nframe=   53 fps=1.1 q=38.0 size=       1KiB time=00:00:01.04 bitrate=   4.3kbits/s speed=0.0216x elapsed=0:00:48.21    \nframe=   54 fps=1.1 q=38.0 size=       1KiB time=00:00:01.06 bitrate=   4.2kbits/s speed=0.0217x elapsed=0:00:48.79    \nframe=   54 fps=1.1 q=38.0 size=       1KiB time=00:00:01.06 bitrate=   4.2kbits/s speed=0.0215x elapsed=0:00:49.33    \nframe=   54 fps=1.1 q=38.0 size=       1KiB time=00:00:01.06 bitrate=   4.2kbits/s speed=0.0212x elapsed=0:00:49.90    \nframe=   54 fps=1.1 q=38.0 size=       1KiB time=00:00:01.06 bitrate=   4.2kbits/s speed=0.021x elapsed=0:00:50.45    \nframe=   55 fps=1.1 q=38.0 size=       1KiB time=00:00:01.08 bitrate=   4.2kbits/s speed=0.0212x elapsed=0:00:51.01    \nframe=   55 fps=1.1 q=38.0 size=       1KiB time=00:00:01.08 bitrate=   4.2kbits/s speed=0.0209x elapsed=0:00:51.61    \nframe=   56 fps=1.1 q=39.0 size=       1KiB time=00:00:01.10 bitrate=   4.1kbits/s speed=0.0211x elapsed=0:00:52.15    \nframe=   58 fps=1.1 q=39.0 size=       1KiB time=00:00:01.14 bitrate=   3.9kbits/s speed=0.0216x elapsed=0:00:52.69    \nframe=   59 fps=1.1 q=40.0 size=       1KiB time=00:00:01.16 bitrate=   3.9kbits/s speed=0.0218x elapsed=0:00:53.25    \nframe=   59 fps=1.1 q=40.0 size=       1KiB time=00:00:01.16 bitrate=   3.9kbits/s speed=0.0216x elapsed=0:00:53.78    \nframe=   60 fps=1.1 q=39.0 size=       1KiB time=00:00:01.18 bitrate=   3.8kbits/s speed=0.0217x elapsed=0:00:54.32    \nframe=   61 fps=1.1 q=37.0 size=       1KiB time=00:00:01.20 bitrate=   3.7kbits/s speed=0.0219x elapsed=0:00:54.87    \nframe=   64 fps=1.2 q=39.0 size=       1KiB time=00:00:01.26 bitrate=   3.6kbits/s speed=0.0227x elapsed=0:00:55.40    \nframe=   65 fps=1.2 q=20.0 size=       1KiB time=00:00:01.28 bitrate=   3.5kbits/s speed=0.0229x elapsed=0:00:55.94    \nframe=   66 fps=1.2 q=39.0 size=       1KiB time=00:00:01.30 bitrate=   3.5kbits/s speed=0.023x elapsed=0:00:56.45    \nframe=   66 fps=1.2 q=39.0 size=       1KiB time=00:00:01.30 bitrate=   3.5kbits/s speed=0.0228x elapsed=0:00:56.97    \nframe=   67 fps=1.2 q=40.0 size=       1KiB time=00:00:01.32 bitrate=   3.4kbits/s speed=0.023x elapsed=0:00:57.51    \nframe=   67 fps=1.2 q=40.0 size=       1KiB time=00:00:01.32 bitrate=   3.4kbits/s speed=0.0227x elapsed=0:00:58.02    \nframe=   68 fps=1.2 q=39.0 size=       1KiB time=00:00:01.34 bitrate=   3.4kbits/s speed=0.0229x elapsed=0:00:58.55    \nframe=   69 fps=1.2 q=38.0 size=       1KiB time=00:00:01.36 bitrate=   3.3kbits/s speed=0.023x elapsed=0:00:59.08    \nframe=   69 fps=1.2 q=38.0 size=       1KiB time=00:00:01.36 bitrate=   3.3kbits/s speed=0.0228x elapsed=0:00:59.62    \nframe=   70 fps=1.2 q=39.0 size=       1KiB time=00:00:01.38 bitrate=   3.3kbits/s speed=0.0229x elapsed=0:01:00.15    \nframe=   70 fps=1.2 q=39.0 size=       1KiB time=00:00:01.38 bitrate=   3.3kbits/s speed=0.0227x elapsed=0:01:00.70    \nframe=   70 fps=1.1 q=39.0 size=       1KiB time=00:00:01.38 bitrate=   3.3kbits/s speed=0.0225x elapsed=0:01:01.23    \nframe=   70 fps=1.1 q=39.0 size=       1KiB time=00:00:01.38 bitrate=   3.3kbits/s speed=0.0223x elapsed=0:01:01.81    \nframe=   71 fps=1.1 q=40.0 size=       1KiB time=00:00:01.40 bitrate=   3.2kbits/s speed=0.0224x elapsed=0:01:02.37    \nframe=   71 fps=1.1 q=40.0 size=       1KiB time=00:00:01.40 bitrate=   3.2kbits/s speed=0.0222x elapsed=0:01:02.93    \nframe=   72 fps=1.1 q=39.0 size=       1KiB time=00:00:01.40 bitrate=   3.2kbits/s speed=0.022x elapsed=0:01:03.50    \nframe=   73 fps=1.1 q=32.0 size=       1KiB time=00:00:01.44 bitrate=   3.1kbits/s speed=0.0225x elapsed=0:01:04.06    \nframe=   73 fps=1.1 q=32.0 size=       1KiB time=00:00:01.44 bitrate=   3.1kbits/s speed=0.0223x elapsed=0:01:04.60    \nframe=   74 fps=1.1 q=40.0 size=       1KiB time=00:00:01.46 bitrate=   3.1kbits/s speed=0.0224x elapsed=0:01:05.13    \nframe=   75 fps=1.1 q=39.0 size=       1KiB time=00:00:01.48 bitrate=   3.0kbits/s speed=0.0225x elapsed=0:01:05.69    \nframe=   75 fps=1.1 q=39.0 size=       1KiB time=00:00:01.48 bitrate=   3.0kbits/s speed=0.0223x elapsed=0:01:06.23    \nframe=   77 fps=1.2 q=36.0 size=       1KiB time=00:00:01.52 bitrate=   3.0kbits/s speed=0.0228x elapsed=0:01:06.75    \nframe=   78 fps=1.2 q=40.0 size=       1KiB time=00:00:01.54 bitrate=   2.9kbits/s speed=0.0229x elapsed=0:01:07.28    \nframe=   80 fps=1.2 q=40.0 size=       1KiB time=00:00:01.58 bitrate=   2.8kbits/s speed=0.0233x elapsed=0:01:07.81    \nframe=   80 fps=1.2 q=40.0 size=       1KiB time=00:00:01.58 bitrate=   2.8kbits/s speed=0.0231x elapsed=0:01:08.36    \nframe=   80 fps=1.2 q=40.0 size=       1KiB time=00:00:01.58 bitrate=   2.8kbits/s speed=0.0229x elapsed=0:01:08.88    \nframe=   81 fps=1.2 q=21.0 size=       1KiB time=00:00:01.60 bitrate=   2.8kbits/s speed=0.023x elapsed=0:01:09.45    \nframe=   81 fps=1.2 q=40.0 size=       1KiB time=00:00:01.60 bitrate=   2.8kbits/s speed=0.0229x elapsed=0:01:09.98    \nframe=   82 fps=1.2 q=40.0 size=       1KiB time=00:00:01.62 bitrate=   2.8kbits/s speed=0.023x elapsed=0:01:10.50    \nframe=   83 fps=1.2 q=39.0 size=       1KiB time=00:00:01.64 bitrate=   2.7kbits/s speed=0.0231x elapsed=0:01:11.02    \nframe=   83 fps=1.2 q=39.0 size=       1KiB time=00:00:01.64 bitrate=   2.7kbits/s speed=0.0229x elapsed=0:01:11.57    \nframe=   84 fps=1.2 q=41.0 size=       1KiB time=00:00:01.66 bitrate=   2.7kbits/s speed=0.023x elapsed=0:01:12.12    \nframe=   85 fps=1.2 q=36.0 size=       1KiB time=00:00:01.68 bitrate=   2.7kbits/s speed=0.0231x elapsed=0:01:12.71    \nframe=   86 fps=1.2 q=41.0 size=       1KiB time=00:00:01.70 bitrate=   2.6kbits/s speed=0.0232x elapsed=0:01:13.27    \nframe=   86 fps=1.2 q=41.0 size=       1KiB time=00:00:01.70 bitrate=   2.6kbits/s speed=0.023x elapsed=0:01:13.78    \nframe=   86 fps=1.2 q=41.0 size=       1KiB time=00:00:01.70 bitrate=   2.6kbits/s speed=0.0229x elapsed=0:01:14.33    \nframe=   87 fps=1.2 q=39.0 size=       1KiB time=00:00:01.72 bitrate=   2.6kbits/s speed=0.023x elapsed=0:01:14.88    \nframe=   87 fps=1.2 q=39.0 size=       1KiB time=00:00:01.72 bitrate=   2.6kbits/s speed=0.0228x elapsed=0:01:15.41    \nframe=   89 fps=1.2 q=33.0 size=       1KiB time=00:00:01.76 bitrate=   2.6kbits/s speed=0.0232x elapsed=0:01:15.92    \nframe=   90 fps=1.2 q=42.0 size=       1KiB time=00:00:01.78 bitrate=   2.5kbits/s speed=0.0233x elapsed=0:01:16.45    \nframe=   91 fps=1.2 q=40.0 size=       1KiB time=00:00:01.80 bitrate=   2.5kbits/s speed=0.0234x elapsed=0:01:16.97    \nframe=   91 fps=1.2 q=40.0 size=       1KiB time=00:00:01.80 bitrate=   2.5kbits/s speed=0.0232x elapsed=0:01:17.49    \nframe=   92 fps=1.2 q=39.0 size=       1KiB time=00:00:01.82 bitrate=   2.5kbits/s speed=0.0233x elapsed=0:01:18.01    \nframe=   94 fps=1.2 q=42.0 size=       1KiB time=00:00:01.86 bitrate=   2.4kbits/s speed=0.0237x elapsed=0:01:18.57    \nframe=   94 fps=1.2 q=42.0 size=       1KiB time=00:00:01.86 bitrate=   2.4kbits/s speed=0.0235x elapsed=0:01:19.10    \nframe=   95 fps=1.2 q=39.0 size=       1KiB time=00:00:01.88 bitrate=   2.4kbits/s speed=0.0236x elapsed=0:01:19.66    \nframe=   96 fps=1.2 q=38.0 size=       1KiB time=00:00:01.90 bitrate=   2.4kbits/s speed=0.0237x elapsed=0:01:20.18    \nframe=   97 fps=1.2 q=21.0 size=       1KiB time=00:00:01.92 bitrate=   2.3kbits/s speed=0.0238x elapsed=0:01:20.70    \nframe=   98 fps=1.2 q=43.0 size=       1KiB time=00:00:01.94 bitrate=   2.3kbits/s speed=0.0239x elapsed=0:01:21.23    \nframe=   99 fps=1.2 q=42.0 size=       1KiB time=00:00:01.96 bitrate=   2.3kbits/s speed=0.024x elapsed=0:01:21.77    \nframe=   99 fps=1.2 q=42.0 size=       1KiB time=00:00:01.96 bitrate=   2.3kbits/s speed=0.0238x elapsed=0:01:22.29    \nframe=  100 fps=1.2 q=43.0 size=       1KiB time=00:00:01.98 bitrate=   2.3kbits/s speed=0.0239x elapsed=0:01:22.82    \nframe=  101 fps=1.2 q=39.0 size=       1KiB time=00:00:02.00 bitrate=   2.2kbits/s speed=0.024x elapsed=0:01:23.35    \nframe=  102 fps=1.2 q=43.0 size=       1KiB time=00:00:02.02 bitrate=   2.2kbits/s speed=0.0241x elapsed=0:01:23.87    \nframe=  102 fps=1.2 q=43.0 size=       1KiB time=00:00:02.02 bitrate=   2.2kbits/s speed=0.0239x elapsed=0:01:24.38    \nframe=  103 fps=1.2 q=42.0 size=       1KiB time=00:00:02.04 bitrate=   2.2kbits/s speed=0.024x elapsed=0:01:24.91    \nframe=  103 fps=1.2 q=42.0 size=       1KiB time=00:00:02.04 bitrate=   2.2kbits/s speed=0.0239x elapsed=0:01:25.43    \nframe=  103 fps=1.2 q=42.0 size=       1KiB time=00:00:02.04 bitrate=   2.2kbits/s speed=0.0237x elapsed=0:01:25.96    \nframe=  104 fps=1.2 q=43.0 size=       1KiB time=00:00:02.06 bitrate=   2.2kbits/s speed=0.0238x elapsed=0:01:26.51    \nframe=  106 fps=1.2 q=43.0 size=       1KiB time=00:00:02.10 bitrate=   2.1kbits/s speed=0.0241x elapsed=0:01:27.05    \nframe=  107 fps=1.2 q=41.0 size=       1KiB time=00:00:02.12 bitrate=   2.1kbits/s speed=0.0242x elapsed=0:01:27.58    \nframe=  107 fps=1.2 q=41.0 size=       1KiB time=00:00:02.12 bitrate=   2.1kbits/s speed=0.0241x elapsed=0:01:28.11    \nframe=  108 fps=1.2 q=40.0 size=       1KiB time=00:00:02.14 bitrate=   2.1kbits/s speed=0.0241x elapsed=0:01:28.64    \nframe=  109 fps=1.2 q=37.0 size=       1KiB time=00:00:02.16 bitrate=   2.1kbits/s speed=0.0242x elapsed=0:01:29.15    \nframe=  112 fps=1.2 q=42.0 size=       1KiB time=00:00:02.22 bitrate=   2.0kbits/s speed=0.0247x elapsed=0:01:29.70    \nframe=  113 fps=1.3 q=24.0 size=       1KiB time=00:00:02.24 bitrate=   2.0kbits/s speed=0.0248x elapsed=0:01:30.22    \nframe=  115 fps=1.3 q=42.0 size=       1KiB time=00:00:02.28 bitrate=   2.0kbits/s speed=0.0251x elapsed=0:01:30.75    \nframe=  115 fps=1.3 q=42.0 size=       1KiB time=00:00:02.28 bitrate=   2.0kbits/s speed=0.025x elapsed=0:01:31.28    \nframe=  115 fps=1.3 q=42.0 size=       1KiB time=00:00:02.28 bitrate=   2.0kbits/s speed=0.0248x elapsed=0:01:31.83    \nframe=  116 fps=1.3 q=43.0 size=       1KiB time=00:00:02.30 bitrate=   2.0kbits/s speed=0.0249x elapsed=0:01:32.37    \nframe=  117 fps=1.3 q=40.0 size=       1KiB time=00:00:02.32 bitrate=   1.9kbits/s speed=0.025x elapsed=0:01:32.93    \nframe=  118 fps=1.3 q=42.0 size=       1KiB time=00:00:02.34 bitrate=   1.9kbits/s speed=0.025x elapsed=0:01:33.47    \nframe=  118 fps=1.3 q=42.0 size=       1KiB time=00:00:02.34 bitrate=   1.9kbits/s speed=0.0249x elapsed=0:01:34.02    \nframe=  118 fps=1.2 q=42.0 size=       1KiB time=00:00:02.34 bitrate=   1.9kbits/s speed=0.0248x elapsed=0:01:34.53    \nframe=  119 fps=1.3 q=39.0 size=       1KiB time=00:00:02.36 bitrate=   1.9kbits/s speed=0.0248x elapsed=0:01:35.13    \nframe=  119 fps=1.2 q=39.0 size=       1KiB time=00:00:02.36 bitrate=   1.9kbits/s speed=0.0247x elapsed=0:01:35.69    \nframe=  120 fps=1.2 q=42.0 size=       1KiB time=00:00:02.38 bitrate=   1.9kbits/s speed=0.0247x elapsed=0:01:36.28    \nframe=  122 fps=1.3 q=43.0 size=       1KiB time=00:00:02.42 bitrate=   1.9kbits/s speed=0.025x elapsed=0:01:36.85    \nframe=  123 fps=1.3 q=41.0 size=       1KiB time=00:00:02.44 bitrate=   1.8kbits/s speed=0.025x elapsed=0:01:37.43    \nframe=  123 fps=1.3 q=41.0 size=       1KiB time=00:00:02.44 bitrate=   1.8kbits/s speed=0.0249x elapsed=0:01:38.00    \nframe=  124 fps=1.3 q=43.0 size=       1KiB time=00:00:02.46 bitrate=   1.8kbits/s speed=0.025x elapsed=0:01:38.55    \nframe=  126 fps=1.3 q=43.0 size=       1KiB time=00:00:02.50 bitrate=   1.8kbits/s speed=0.0252x elapsed=0:01:39.08    \nframe=  127 fps=1.3 q=41.0 size=       1KiB time=00:00:02.52 bitrate=   1.8kbits/s speed=0.0253x elapsed=0:01:39.61    \nframe=  128 fps=1.3 q=43.0 size=       1KiB time=00:00:02.54 bitrate=   1.8kbits/s speed=0.0254x elapsed=0:01:40.13    \nframe=  130 fps=1.3 q=44.0 size=       1KiB time=00:00:02.58 bitrate=   1.7kbits/s speed=0.0256x elapsed=0:01:40.65    \nframe=  131 fps=1.3 q=43.0 size=       1KiB time=00:00:02.60 bitrate=   1.7kbits/s speed=0.0257x elapsed=0:01:41.21    \nframe=  131 fps=1.3 q=43.0 size=       1KiB time=00:00:02.60 bitrate=   1.7kbits/s speed=0.0256x elapsed=0:01:41.72    \nframe=  132 fps=1.3 q=44.0 size=       1KiB time=00:00:02.62 bitrate=   1.7kbits/s speed=0.0256x elapsed=0:01:42.25    \nframe=  133 fps=1.3 q=41.0 size=       1KiB time=00:00:02.64 bitrate=   1.7kbits/s speed=0.0257x elapsed=0:01:42.77    \nframe=  133 fps=1.3 q=41.0 size=       1KiB time=00:00:02.64 bitrate=   1.7kbits/s speed=0.0256x elapsed=0:01:43.31    \nframe=  134 fps=1.3 q=42.0 size=       1KiB time=00:00:02.66 bitrate=   1.7kbits/s speed=0.0256x elapsed=0:01:43.83    \nframe=  134 fps=1.3 q=42.0 size=       1KiB time=00:00:02.66 bitrate=   1.7kbits/s speed=0.0255x elapsed=0:01:44.39    \nframe=  135 fps=1.3 q=39.0 size=       1KiB time=00:00:02.68 bitrate=   1.7kbits/s speed=0.0255x elapsed=0:01:44.96    \nframe=  136 fps=1.3 q=42.0 size=       1KiB time=00:00:02.68 bitrate=   1.7kbits/s speed=0.0254x elapsed=0:01:45.53    \nframe=  136 fps=1.3 q=42.0 size=       1KiB time=00:00:02.70 bitrate=   1.7kbits/s speed=0.0254x elapsed=0:01:46.15    \nframe=  137 fps=1.3 q=36.0 size=       1KiB time=00:00:02.72 bitrate=   1.7kbits/s speed=0.0255x elapsed=0:01:46.68    \nframe=  139 fps=1.3 q=42.0 size=       1KiB time=00:00:02.76 bitrate=   1.6kbits/s speed=0.0257x elapsed=0:01:47.21    \nframe=  139 fps=1.3 q=42.0 size=       1KiB time=00:00:02.76 bitrate=   1.6kbits/s speed=0.0256x elapsed=0:01:47.75    \nframe=  140 fps=1.3 q=44.0 size=       1KiB time=00:00:02.78 bitrate=   1.6kbits/s speed=0.0257x elapsed=0:01:48.27    \nframe=  141 fps=1.3 q=38.0 size=       1KiB time=00:00:02.80 bitrate=   1.6kbits/s speed=0.0257x elapsed=0:01:48.81    \nframe=  142 fps=1.3 q=43.0 size=       1KiB time=00:00:02.82 bitrate=   1.6kbits/s speed=0.0258x elapsed=0:01:49.42    \nframe=  143 fps=1.3 q=41.0 size=       1KiB time=00:00:02.84 bitrate=   1.6kbits/s speed=0.0258x elapsed=0:01:49.96    \nframe=  143 fps=1.3 q=41.0 size=       1KiB time=00:00:02.84 bitrate=   1.6kbits/s speed=0.0257x elapsed=0:01:50.48    \nframe=  145 fps=1.3 q=27.0 size=       1KiB time=00:00:02.86 bitrate=   1.6kbits/s speed=0.0258x elapsed=0:01:51.00    \nframe=  146 fps=1.3 q=44.0 size=       1KiB time=00:00:02.90 bitrate=   1.6kbits/s speed=0.026x elapsed=0:01:51.55    \nframe=  147 fps=1.3 q=43.0 size=       1KiB time=00:00:02.92 bitrate=   1.5kbits/s speed=0.026x elapsed=0:01:52.12    \nframe=  147 fps=1.3 q=43.0 size=       1KiB time=00:00:02.92 bitrate=   1.5kbits/s speed=0.0259x elapsed=0:01:52.66    \nframe=  147 fps=1.3 q=43.0 size=       1KiB time=00:00:02.92 bitrate=   1.5kbits/s speed=0.0258x elapsed=0:01:53.18    \nframe=  148 fps=1.3 q=44.0 size=       1KiB time=00:00:02.94 bitrate=   1.5kbits/s speed=0.0259x elapsed=0:01:53.70    \nframe=  149 fps=1.3 q=41.0 size=       1KiB time=00:00:02.96 bitrate=   1.5kbits/s speed=0.0259x elapsed=0:01:54.24    \nframe=  150 fps=1.3 q=42.0 size=       1KiB time=00:00:02.98 bitrate=   1.5kbits/s speed=0.026x elapsed=0:01:54.80    \nframe=  150 fps=1.3 q=42.0 size=       1KiB time=00:00:02.98 bitrate=   1.5kbits/s speed=0.0258x elapsed=0:01:55.33    \nframe=  150 fps=1.3 q=42.0 size=       1KiB time=00:00:02.98 bitrate=   1.5kbits/s speed=0.0257x elapsed=0:01:55.84    \nframe=  151 fps=1.3 q=39.0 size=       1KiB time=00:00:03.00 bitrate=   1.5kbits/s speed=0.0258x elapsed=0:01:56.39    \nframe=  151 fps=1.3 q=39.0 size=       1KiB time=00:00:03.00 bitrate=   1.5kbits/s speed=0.0257x elapsed=0:01:56.89    \nframe=  151 fps=1.3 q=39.0 size=       1KiB time=00:00:03.00 bitrate=   1.5kbits/s speed=0.0256x elapsed=0:01:57.41    \nframe=  152 fps=1.3 q=42.0 size=       1KiB time=00:00:03.00 bitrate=   1.5kbits/s speed=0.0254x elapsed=0:01:57.97    \nframe=  153 fps=1.3 q=36.0 size=       1KiB time=00:00:03.04 bitrate=   1.5kbits/s speed=0.0256x elapsed=0:01:58.58    \nframe=  153 fps=1.3 q=36.0 size=       1KiB time=00:00:03.04 bitrate=   1.5kbits/s speed=0.0255x elapsed=0:01:59.18    \nframe=  154 fps=1.3 q=44.0 size=       1KiB time=00:00:03.06 bitrate=   1.5kbits/s speed=0.0256x elapsed=0:01:59.72    \nframe=  155 fps=1.3 q=42.0 size=       1KiB time=00:00:03.08 bitrate=   1.5kbits/s speed=0.0256x elapsed=0:02:00.33    \nframe=  156 fps=1.3 q=44.0 size=       1KiB time=00:00:03.08 bitrate=   1.5kbits/s speed=0.0254x elapsed=0:02:01.28    \nframe=  157 fps=1.3 q=38.0 size=       1KiB time=00:00:03.12 bitrate=   1.4kbits/s speed=0.0255x elapsed=0:02:02.22    \nframe=  160 fps=1.3 q=44.0 size=       1KiB time=00:00:03.18 bitrate=   1.4kbits/s speed=0.0258x elapsed=0:02:03.12    \nframe=  160 fps=1.3 q=44.0 size=       1KiB time=00:00:03.18 bitrate=   1.4kbits/s speed=0.0257x elapsed=0:02:03.83    \nframe=  161 fps=1.3 q=26.0 size=       1KiB time=00:00:03.20 bitrate=   1.4kbits/s speed=0.0257x elapsed=0:02:04.44    \nframe=  162 fps=1.3 q=44.0 size=       1KiB time=00:00:03.22 bitrate=   1.4kbits/s speed=0.0257x elapsed=0:02:05.07    \nframe=  163 fps=1.3 q=43.0 size=       1KiB time=00:00:03.24 bitrate=   1.4kbits/s speed=0.0258x elapsed=0:02:05.58    \nframe=  163 fps=1.3 q=43.0 size=       1KiB time=00:00:03.24 bitrate=   1.4kbits/s speed=0.0257x elapsed=0:02:06.11    \nframe=  164 fps=1.3 q=44.0 size=       1KiB time=00:00:03.26 bitrate=   1.4kbits/s speed=0.0257x elapsed=0:02:06.62    \nframe=  165 fps=1.3 q=41.0 size=       1KiB time=00:00:03.28 bitrate=   1.4kbits/s speed=0.0258x elapsed=0:02:07.13    \nframe=  166 fps=1.3 q=44.0 size=       1KiB time=00:00:03.30 bitrate=   1.4kbits/s speed=0.0259x elapsed=0:02:07.65    \nframe=  166 fps=1.3 q=44.0 size=       1KiB time=00:00:03.30 bitrate=   1.4kbits/s speed=0.0257x elapsed=0:02:08.16    \nframe=  166 fps=1.3 q=44.0 size=       1KiB time=00:00:03.30 bitrate=   1.4kbits/s speed=0.0256x elapsed=0:02:08.68    \nframe=  167 fps=1.3 q=43.0 size=       1KiB time=00:00:03.32 bitrate=   1.4kbits/s speed=0.0257x elapsed=0:02:09.20    \nframe=  167 fps=1.3 q=43.0 size=       1KiB time=00:00:03.32 bitrate=   1.4kbits/s speed=0.0256x elapsed=0:02:09.71    \nframe=  167 fps=1.3 q=43.0 size=       1KiB time=00:00:03.32 bitrate=   1.4kbits/s speed=0.0255x elapsed=0:02:10.22    \nframe=  169 fps=1.3 q=37.0 size=       1KiB time=00:00:03.36 bitrate=   1.3kbits/s speed=0.0257x elapsed=0:02:10.75    \nframe=  170 fps=1.3 q=43.0 size=       1KiB time=00:00:03.38 bitrate=   1.3kbits/s speed=0.0258x elapsed=0:02:11.25    \nframe=  171 fps=1.3 q=41.0 size=       1KiB time=00:00:03.40 bitrate=   1.3kbits/s speed=0.0258x elapsed=0:02:11.77    \nframe=  171 fps=1.3 q=41.0 size=       1KiB time=00:00:03.40 bitrate=   1.3kbits/s speed=0.0257x elapsed=0:02:12.29    \nframe=  171 fps=1.3 q=41.0 size=       1KiB time=00:00:03.40 bitrate=   1.3kbits/s speed=0.0256x elapsed=0:02:12.80    \nframe=  173 fps=1.3 q=37.0 size=       1KiB time=00:00:03.44 bitrate=   1.3kbits/s speed=0.0258x elapsed=0:02:13.32    \nframe=  174 fps=1.3 q=43.0 size=       1KiB time=00:00:03.46 bitrate=   1.3kbits/s speed=0.0259x elapsed=0:02:13.83    \nframe=  175 fps=1.3 q=40.0 size=       1KiB time=00:00:03.48 bitrate=   1.3kbits/s speed=0.0259x elapsed=0:02:14.35    \nframe=  176 fps=1.3 q=40.0 size=       1KiB time=00:00:03.50 bitrate=   1.3kbits/s speed=0.026x elapsed=0:02:14.87    \nframe=  177 fps=1.3 q=26.0 size=       1KiB time=00:00:03.52 bitrate=   1.3kbits/s speed=0.026x elapsed=0:02:15.38    \nframe=  178 fps=1.3 q=43.0 size=       1KiB time=00:00:03.54 bitrate=   1.3kbits/s speed=0.026x elapsed=0:02:15.89    \nframe=  179 fps=1.3 q=42.0 size=       1KiB time=00:00:03.56 bitrate=   1.3kbits/s speed=0.0261x elapsed=0:02:16.41    \nframe=  179 fps=1.3 q=42.0 size=       1KiB time=00:00:03.56 bitrate=   1.3kbits/s speed=0.026x elapsed=0:02:16.92    \nframe=  180 fps=1.3 q=43.0 size=       1KiB time=00:00:03.58 bitrate=   1.3kbits/s speed=0.026x elapsed=0:02:17.44    \nframe=  181 fps=1.3 q=40.0 size=       1KiB time=00:00:03.60 bitrate=   1.2kbits/s speed=0.0261x elapsed=0:02:17.96    \nframe=  182 fps=1.3 q=43.0 size=       1KiB time=00:00:03.62 bitrate=   1.2kbits/s speed=0.0261x elapsed=0:02:18.47    \nframe=  182 fps=1.3 q=43.0 size=       1KiB time=00:00:03.62 bitrate=   1.2kbits/s speed=0.026x elapsed=0:02:19.00    \nframe=  183 fps=1.3 q=42.0 size=       1KiB time=00:00:03.64 bitrate=   1.2kbits/s speed=0.0261x elapsed=0:02:19.52    \nframe=  183 fps=1.3 q=42.0 size=       1KiB time=00:00:03.64 bitrate=   1.2kbits/s speed=0.026x elapsed=0:02:20.05    \nframe=  184 fps=1.3 q=43.0 size=       1KiB time=00:00:03.66 bitrate=   1.2kbits/s speed=0.026x elapsed=0:02:20.55    \nframe=  185 fps=1.3 q=36.0 size=       1KiB time=00:00:03.68 bitrate=   1.2kbits/s speed=0.0261x elapsed=0:02:21.07    \nframe=  186 fps=1.3 q=44.0 size=       1KiB time=00:00:03.70 bitrate=   1.2kbits/s speed=0.0261x elapsed=0:02:21.59    \nframe=  187 fps=1.3 q=40.0 size=       1KiB time=00:00:03.72 bitrate=   1.2kbits/s speed=0.0262x elapsed=0:02:22.10    \nframe=  187 fps=1.3 q=40.0 size=       1KiB time=00:00:03.72 bitrate=   1.2kbits/s speed=0.0261x elapsed=0:02:22.63    \nframe=  188 fps=1.3 q=43.0 size=       1KiB time=00:00:03.74 bitrate=   1.2kbits/s speed=0.0261x elapsed=0:02:23.14    \nframe=  189 fps=1.3 q=37.0 size=       1KiB time=00:00:03.76 bitrate=   1.2kbits/s speed=0.0262x elapsed=0:02:23.65    \nframe=  190 fps=1.3 q=43.0 size=       1KiB time=00:00:03.78 bitrate=   1.2kbits/s speed=0.0262x elapsed=0:02:24.16    \nframe=  192 fps=1.3 q=42.0 size=       1KiB time=00:00:03.82 bitrate=   1.2kbits/s speed=0.0264x elapsed=0:02:24.67    \nframe=  192 fps=1.3 q=42.0 size=       1KiB time=00:00:03.82 bitrate=   1.2kbits/s speed=0.0263x elapsed=0:02:25.19    \nframe=  193 fps=1.3 q=26.0 size=       1KiB time=00:00:03.84 bitrate=   1.2kbits/s speed=0.0264x elapsed=0:02:25.71    \nframe=  194 fps=1.3 q=43.0 size=       1KiB time=00:00:03.86 bitrate=   1.2kbits/s speed=0.0264x elapsed=0:02:26.23    \nframe=  195 fps=1.3 q=42.0 size=       1KiB time=00:00:03.88 bitrate=   1.2kbits/s speed=0.0264x elapsed=0:02:26.75    \nframe=  196 fps=1.3 q=43.0 size=       1KiB time=00:00:03.90 bitrate=   1.2kbits/s speed=0.0265x elapsed=0:02:27.26    \nframe=  197 fps=1.3 q=40.0 size=       1KiB time=00:00:03.92 bitrate=   1.1kbits/s speed=0.0265x elapsed=0:02:27.77    \nframe=  198 fps=1.3 q=43.0 size=       1KiB time=00:00:03.94 bitrate=   1.1kbits/s speed=0.0266x elapsed=0:02:28.29    \nframe=  198 fps=1.3 q=43.0 size=       1KiB time=00:00:03.94 bitrate=   1.1kbits/s speed=0.0265x elapsed=0:02:28.80    \nframe=  199 fps=1.3 q=42.0 size=       1KiB time=00:00:03.96 bitrate=   1.1kbits/s speed=0.0265x elapsed=0:02:29.33    \nframe=  199 fps=1.3 q=42.0 size=       1KiB time=00:00:03.96 bitrate=   1.1kbits/s speed=0.0264x elapsed=0:02:29.84    \nframe=  201 fps=1.3 q=36.0 size=       1KiB time=00:00:04.00 bitrate=   1.1kbits/s speed=0.0266x elapsed=0:02:30.36    \nframe=  202 fps=1.3 q=43.0 size=       1KiB time=00:00:04.02 bitrate=   1.1kbits/s speed=0.0266x elapsed=0:02:30.87    \nframe=  202 fps=1.3 q=43.0 size=       1KiB time=00:00:04.02 bitrate=   1.1kbits/s speed=0.0266x elapsed=0:02:31.38    \nframe=  203 fps=1.3 q=41.0 size=       1KiB time=00:00:04.04 bitrate=   1.1kbits/s speed=0.0266x elapsed=0:02:31.90    \nframe=  203 fps=1.3 q=41.0 size=       1KiB time=00:00:04.04 bitrate=   1.1kbits/s speed=0.0265x elapsed=0:02:32.42    \nframe=  204 fps=1.3 q=40.0 size=       1KiB time=00:00:04.06 bitrate=   1.1kbits/s speed=0.0265x elapsed=0:02:32.93    \nframe=  205 fps=1.3 q=37.0 size=       1KiB time=00:00:04.08 bitrate=   1.1kbits/s speed=0.0266x elapsed=0:02:33.45    \nframe=  206 fps=1.3 q=42.0 size=       1KiB time=00:00:04.10 bitrate=   1.1kbits/s speed=0.0266x elapsed=0:02:33.97    \nframe=  208 fps=1.3 q=42.0 size=       1KiB time=00:00:04.14 bitrate=   1.1kbits/s speed=0.0268x elapsed=0:02:34.47    \nframe=  209 fps=1.3 q=29.0 size=       1KiB time=00:00:04.16 bitrate=   1.1kbits/s speed=0.0268x elapsed=0:02:34.99    \nframe=  210 fps=1.4 q=43.0 size=       1KiB time=00:00:04.18 bitrate=   1.1kbits/s speed=0.0269x elapsed=0:02:35.51    \nframe=  210 fps=1.3 q=43.0 size=       1KiB time=00:00:04.18 bitrate=   1.1kbits/s speed=0.0268x elapsed=0:02:36.03    \nframe=  211 fps=1.3 q=42.0 size=       1KiB time=00:00:04.20 bitrate=   1.1kbits/s speed=0.0268x elapsed=0:02:36.54    \nframe=  212 fps=1.3 q=43.0 size=       1KiB time=00:00:04.22 bitrate=   1.1kbits/s speed=0.0269x elapsed=0:02:37.05    \nframe=  213 fps=1.4 q=40.0 size=       1KiB time=00:00:04.24 bitrate=   1.1kbits/s speed=0.0269x elapsed=0:02:37.58    \nframe=  214 fps=1.4 q=43.0 size=       1KiB time=00:00:04.26 bitrate=   1.1kbits/s speed=0.0269x elapsed=0:02:38.08    \nframe=  214 fps=1.3 q=43.0 size=       1KiB time=00:00:04.26 bitrate=   1.1kbits/s speed=0.0269x elapsed=0:02:38.60    \nframe=  215 fps=1.4 q=42.0 size=       1KiB time=00:00:04.28 bitrate=   1.1kbits/s speed=0.0269x elapsed=0:02:39.13    \nframe=  217 fps=1.4 q=36.0 size=       1KiB time=00:00:04.32 bitrate=   1.0kbits/s speed=0.0271x elapsed=0:02:39.66    \nframe=  218 fps=1.4 q=43.0 size=       1KiB time=00:00:04.34 bitrate=   1.0kbits/s speed=0.0271x elapsed=0:02:40.18    \nframe=  219 fps=1.4 q=40.0 size=       1KiB time=00:00:04.36 bitrate=   1.0kbits/s speed=0.0271x elapsed=0:02:40.69    \nframe=  219 fps=1.4 q=40.0 size=       1KiB time=00:00:04.36 bitrate=   1.0kbits/s speed=0.027x elapsed=0:02:41.21    \nframe=  220 fps=1.4 q=42.0 size=       1KiB time=00:00:04.38 bitrate=   1.0kbits/s speed=0.0271x elapsed=0:02:41.75    \nframe=  220 fps=1.4 q=42.0 size=       1KiB time=00:00:04.38 bitrate=   1.0kbits/s speed=0.027x elapsed=0:02:42.32    \nframe=  222 fps=1.4 q=42.0 size=       1KiB time=00:00:04.42 bitrate=   1.0kbits/s speed=0.0271x elapsed=0:02:42.86    \nframe=  224 fps=1.4 q=42.0 size=       1KiB time=00:00:04.46 bitrate=   1.0kbits/s speed=0.0273x elapsed=0:02:43.38    \nframe=  225 fps=1.4 q=24.0 size=       1KiB time=00:00:04.48 bitrate=   1.0kbits/s speed=0.0273x elapsed=0:02:43.89    \nframe=  226 fps=1.4 q=42.0 size=       1KiB time=00:00:04.50 bitrate=   1.0kbits/s speed=0.0274x elapsed=0:02:44.42    \nframe=  227 fps=1.4 q=41.0 size=       1KiB time=00:00:04.52 bitrate=   1.0kbits/s speed=0.0274x elapsed=0:02:44.96    \nframe=  227 fps=1.4 q=41.0 size=       1KiB time=00:00:04.52 bitrate=   1.0kbits/s speed=0.0273x elapsed=0:02:45.48    \nframe=  229 fps=1.4 q=39.0 size=       1KiB time=00:00:04.56 bitrate=   1.0kbits/s speed=0.0275x elapsed=0:02:45.99    \nframe=  230 fps=1.4 q=42.0 size=       1KiB time=00:00:04.58 bitrate=   1.0kbits/s speed=0.0275x elapsed=0:02:46.56    \nframe=  230 fps=1.4 q=42.0 size=       1KiB time=00:00:04.58 bitrate=   1.0kbits/s speed=0.0274x elapsed=0:02:47.09    \nframe=  231 fps=1.4 q=41.0 size=       1KiB time=00:00:04.60 bitrate=   1.0kbits/s speed=0.0274x elapsed=0:02:47.62    \nframe=  231 fps=1.4 q=41.0 size=       1KiB time=00:00:04.60 bitrate=   1.0kbits/s speed=0.0273x elapsed=0:02:48.21    \nframe=  232 fps=1.4 q=42.0 size=       1KiB time=00:00:04.62 bitrate=   1.0kbits/s speed=0.0274x elapsed=0:02:48.74    \nframe=  234 fps=1.4 q=41.0 size=       1KiB time=00:00:04.66 bitrate=   1.0kbits/s speed=0.0275x elapsed=0:02:49.26    \nframe=  235 fps=1.4 q=39.0 size=       1KiB time=00:00:04.68 bitrate=   1.0kbits/s speed=0.0276x elapsed=0:02:49.79    \nframe=  235 fps=1.4 q=39.0 size=       1KiB time=00:00:04.68 bitrate=   1.0kbits/s speed=0.0275x elapsed=0:02:50.31    \nframe=  236 fps=1.4 q=41.0 size=       1KiB time=00:00:04.70 bitrate=   1.0kbits/s speed=0.0275x elapsed=0:02:50.82    \nframe=  238 fps=1.4 q=41.0 size=       1KiB time=00:00:04.74 bitrate=   0.9kbits/s speed=0.0277x elapsed=0:02:51.38    \nframe=  240 fps=1.4 q=41.0 size=       1KiB time=00:00:04.78 bitrate=   0.9kbits/s speed=0.0278x elapsed=0:02:51.94    \nframe=  241 fps=1.4 q=25.0 size=       1KiB time=00:00:04.80 bitrate=   0.9kbits/s speed=0.0278x elapsed=0:02:52.46    \nframe=  242 fps=1.4 q=42.0 size=       1KiB time=00:00:04.82 bitrate=   0.9kbits/s speed=0.0279x elapsed=0:02:52.98    \nframe=  243 fps=1.4 q=41.0 size=       1KiB time=00:00:04.84 bitrate=   0.9kbits/s speed=0.0279x elapsed=0:02:53.49    \nframe=  243 fps=1.4 q=41.0 size=       1KiB time=00:00:04.84 bitrate=   0.9kbits/s speed=0.0278x elapsed=0:02:54.03    \nframe=  244 fps=1.4 q=42.0 size=       1KiB time=00:00:04.86 bitrate=   0.9kbits/s speed=0.0278x elapsed=0:02:54.56    \nframe=  245 fps=1.4 q=39.0 size=       1KiB time=00:00:04.88 bitrate=   0.9kbits/s speed=0.0279x elapsed=0:02:55.07    \nframe=  246 fps=1.4 q=40.0 size=       1KiB time=00:00:04.90 bitrate=   0.9kbits/s speed=0.0279x elapsed=0:02:55.61    \nframe=  246 fps=1.4 q=40.0 size=       1KiB time=00:00:04.90 bitrate=   0.9kbits/s speed=0.0278x elapsed=0:02:56.14    \nframe=  247 fps=1.4 q=37.0 size=       1KiB time=00:00:04.92 bitrate=   0.9kbits/s speed=0.0278x elapsed=0:02:56.66    \nframe=  248 fps=1.4 q=40.0 size=       1KiB time=00:00:04.92 bitrate=   0.9kbits/s speed=0.0278x elapsed=0:02:57.19    \nframe=  249 fps=1.4 q=35.0 size=       1KiB time=00:00:04.96 bitrate=   0.9kbits/s speed=0.0279x elapsed=0:02:57.75    \nframe=  250 fps=1.4 q=42.0 size=       1KiB time=00:00:04.98 bitrate=   0.9kbits/s speed=0.0279x elapsed=0:02:58.30    \nframe=  251 fps=1.4 q=40.0 size=       1KiB time=00:00:05.00 bitrate=   0.9kbits/s speed=0.028x elapsed=0:02:58.84    \nframe=  252 fps=1.4 q=40.0 size=       1KiB time=00:00:05.02 bitrate=   0.9kbits/s speed=0.028x elapsed=0:02:59.40    \nframe=  253 fps=1.4 q=36.0 size=    2560KiB time=00:00:05.04 bitrate=4161.0kbits/s speed=0.028x elapsed=0:02:59.93    \nframe=  256 fps=1.4 q=42.0 size=    2560KiB time=00:00:05.10 bitrate=4112.1kbits/s speed=0.0283x elapsed=0:03:00.46    \nframe=  256 fps=1.4 q=42.0 size=    2560KiB time=00:00:05.10 bitrate=4112.1kbits/s speed=0.0282x elapsed=0:03:01.00    \nframe=  257 fps=1.4 q=25.0 size=    2560KiB time=00:00:05.12 bitrate=4096.0kbits/s speed=0.0282x elapsed=0:03:01.53    \nframe=  259 fps=1.4 q=42.0 size=    2560KiB time=00:00:05.14 bitrate=4080.1kbits/s speed=0.0282x elapsed=0:03:02.05    \nframe=  259 fps=1.4 q=42.0 size=    2560KiB time=00:00:05.16 bitrate=4064.2kbits/s speed=0.0283x elapsed=0:03:02.64    \nframe=  260 fps=1.4 q=43.0 size=    2560KiB time=00:00:05.18 bitrate=4048.6kbits/s speed=0.0283x elapsed=0:03:03.19    \nframe=  261 fps=1.4 q=40.0 size=    2560KiB time=00:00:05.20 bitrate=4033.0kbits/s speed=0.0283x elapsed=0:03:03.79    \nframe=  262 fps=1.4 q=43.0 size=    2560KiB time=00:00:05.22 bitrate=4017.5kbits/s speed=0.0283x elapsed=0:03:04.31    \nframe=  262 fps=1.4 q=43.0 size=    2560KiB time=00:00:05.22 bitrate=4017.5kbits/s speed=0.0282x elapsed=0:03:04.91    \nframe=  262 fps=1.4 q=43.0 size=    2560KiB time=00:00:05.22 bitrate=4017.5kbits/s speed=0.0282x elapsed=0:03:05.43    \nframe=  263 fps=1.4 q=42.0 size=    2560KiB time=00:00:05.24 bitrate=4002.2kbits/s speed=0.0282x elapsed=0:03:05.95    \nframe=  264 fps=1.4 q=43.0 size=    2560KiB time=00:00:05.26 bitrate=3987.0kbits/s speed=0.0282x elapsed=0:03:06.48    \nframe=  266 fps=1.4 q=43.0 size=    2560KiB time=00:00:05.30 bitrate=3956.9kbits/s speed=0.0283x elapsed=0:03:07.13    \nframe=  267 fps=1.4 q=41.0 size=    2560KiB time=00:00:05.32 bitrate=3942.0kbits/s speed=0.0283x elapsed=0:03:07.66    \nframe=  268 fps=1.4 q=43.0 size=    2560KiB time=00:00:05.34 bitrate=3927.3kbits/s speed=0.0284x elapsed=0:03:08.19    \nframe=  269 fps=1.4 q=37.0 size=    2560KiB time=00:00:05.36 bitrate=3912.6kbits/s speed=0.0284x elapsed=0:03:08.77    \nframe=  271 fps=1.4 q=40.0 size=    2560KiB time=00:00:05.40 bitrate=3883.6kbits/s speed=0.0285x elapsed=0:03:09.32    \nframe=  272 fps=1.4 q=42.0 size=    2560KiB time=00:00:05.42 bitrate=3869.3kbits/s speed=0.0285x elapsed=0:03:09.96    \nframe=  275 fps=1.4 q=42.0 size=    2560KiB time=00:00:05.48 bitrate=3826.9kbits/s speed=0.0288x elapsed=0:03:10.58    \nframe=  275 fps=1.4 q=42.0 size=    2560KiB time=00:00:05.48 bitrate=3826.9kbits/s speed=0.0287x elapsed=0:03:11.10    \nframe=  275 fps=1.4 q=42.0 size=    2560KiB time=00:00:05.48 bitrate=3826.9kbits/s speed=0.0286x elapsed=0:03:11.66    \nframe=  276 fps=1.4 q=43.0 size=    2560KiB time=00:00:05.50 bitrate=3813.0kbits/s speed=0.0286x elapsed=0:03:12.18    \nframe=  278 fps=1.4 q=44.0 size=    2560KiB time=00:00:05.54 bitrate=3785.5kbits/s speed=0.0287x elapsed=0:03:12.70    \nframe=  278 fps=1.4 q=44.0 size=    2560KiB time=00:00:05.54 bitrate=3785.5kbits/s speed=0.0287x elapsed=0:03:13.22    \nframe=  278 fps=1.4 q=44.0 size=    2560KiB time=00:00:05.54 bitrate=3785.5kbits/s speed=0.0286x elapsed=0:03:13.76    \nframe=  279 fps=1.4 q=38.0 size=    2560KiB time=00:00:05.56 bitrate=3771.9kbits/s speed=0.0286x elapsed=0:03:14.28    \nframe=  280 fps=1.4 q=44.0 size=    2560KiB time=00:00:05.58 bitrate=3758.3kbits/s speed=0.0286x elapsed=0:03:14.81    \nframe=  281 fps=1.4 q=36.0 size=    2560KiB time=00:00:05.60 bitrate=3744.9kbits/s speed=0.0287x elapsed=0:03:15.36    \nframe=  283 fps=1.4 q=41.0 size=    2560KiB time=00:00:05.64 bitrate=3718.4kbits/s speed=0.0288x elapsed=0:03:15.90    \nframe=  283 fps=1.4 q=41.0 size=    2560KiB time=00:00:05.64 bitrate=3718.4kbits/s speed=0.0287x elapsed=0:03:16.42    \nframe=  284 fps=1.4 q=44.0 size=    2560KiB time=00:00:05.66 bitrate=3705.2kbits/s speed=0.0287x elapsed=0:03:16.96    \nframe=  286 fps=1.4 q=44.0 size=    2560KiB time=00:00:05.70 bitrate=3679.2kbits/s speed=0.0289x elapsed=0:03:17.47    \nframe=  288 fps=1.5 q=44.0 size=    2560KiB time=00:00:05.74 bitrate=3653.6kbits/s speed=0.029x elapsed=0:03:17.99    \nframe=  289 fps=1.5 q=26.0 size=    2560KiB time=00:00:05.76 bitrate=3640.9kbits/s speed=0.029x elapsed=0:03:18.53    \nframe=  290 fps=1.5 q=44.0 size=    2560KiB time=00:00:05.78 bitrate=3628.3kbits/s speed=0.029x elapsed=0:03:19.04    \nframe=  291 fps=1.5 q=42.0 size=    2560KiB time=00:00:05.80 bitrate=3615.8kbits/s speed=0.0291x elapsed=0:03:19.56    \nframe=  291 fps=1.5 q=42.0 size=    2560KiB time=00:00:05.80 bitrate=3615.8kbits/s speed=0.029x elapsed=0:03:20.09    \nframe=  291 fps=1.4 q=42.0 size=    2560KiB time=00:00:05.80 bitrate=3615.8kbits/s speed=0.0289x elapsed=0:03:20.81    \nframe=  292 fps=1.4 q=44.0 size=    2560KiB time=00:00:05.82 bitrate=3603.4kbits/s speed=0.0289x elapsed=0:03:21.39    \nframe=  293 fps=1.5 q=40.0 size=    2560KiB time=00:00:05.84 bitrate=3591.0kbits/s speed=0.0289x elapsed=0:03:21.96    \nframe=  294 fps=1.5 q=44.0 size=    2560KiB time=00:00:05.86 bitrate=3578.8kbits/s speed=0.0289x elapsed=0:03:22.50    \nframe=  294 fps=1.4 q=44.0 size=    2560KiB time=00:00:05.86 bitrate=3578.8kbits/s speed=0.0289x elapsed=0:03:23.04    \nframe=  295 fps=1.4 q=42.0 size=    2560KiB time=00:00:05.88 bitrate=3566.6kbits/s speed=0.0289x elapsed=0:03:23.56    \nframe=  296 fps=1.5 q=44.0 size=    2560KiB time=00:00:05.90 bitrate=3554.5kbits/s speed=0.0289x elapsed=0:03:24.08    \nframe=  296 fps=1.4 q=44.0 size=    2560KiB time=00:00:05.90 bitrate=3554.5kbits/s speed=0.0288x elapsed=0:03:24.64    \nframe=  297 fps=1.4 q=36.0 size=    2560KiB time=00:00:05.92 bitrate=3542.5kbits/s speed=0.0289x elapsed=0:03:25.18    \nframe=  298 fps=1.4 q=43.0 size=    2560KiB time=00:00:05.94 bitrate=3530.6kbits/s speed=0.0289x elapsed=0:03:25.71    \nframe=  300 fps=1.5 q=42.0 size=    2560KiB time=00:00:05.98 bitrate=3506.9kbits/s speed=0.029x elapsed=0:03:26.26    \nframe=  300 fps=1.5 q=42.0 size=    2560KiB time=00:00:05.98 bitrate=3506.9kbits/s speed=0.0289x elapsed=0:03:26.84    \nframe=  301 fps=1.5 q=39.0 size=    2560KiB time=00:00:06.00 bitrate=3495.3kbits/s speed=0.0289x elapsed=0:03:27.38    \nframe=  302 fps=1.5 q=41.0 size=    2560KiB time=00:00:06.00 bitrate=3495.3kbits/s speed=0.0289x elapsed=0:03:27.91    \nframe=  302 fps=1.4 q=41.0 size=    2560KiB time=00:00:06.02 bitrate=3483.6kbits/s speed=0.0289x elapsed=0:03:28.49    \nframe=  304 fps=1.5 q=39.0 size=    2560KiB time=00:00:06.06 bitrate=3460.6kbits/s speed=0.029x elapsed=0:03:29.14    \nframe=  305 fps=1.5 q=25.0 size=    2560KiB time=00:00:06.08 bitrate=3449.3kbits/s speed=0.029x elapsed=0:03:29.65    \nframe=  305 fps=1.5 q=25.0 size=    2560KiB time=00:00:06.08 bitrate=3449.3kbits/s speed=0.0289x elapsed=0:03:30.18    \nframe=  306 fps=1.5 q=41.0 size=    2560KiB time=00:00:06.10 bitrate=3438.0kbits/s speed=0.0289x elapsed=0:03:30.74    \nframe=  307 fps=1.5 q=40.0 size=    2560KiB time=00:00:06.12 bitrate=3426.7kbits/s speed=0.029x elapsed=0:03:31.29    \nframe=  308 fps=1.5 q=34.0 size=    2560KiB time=00:00:06.14 bitrate=3415.6kbits/s speed=0.029x elapsed=0:03:31.86    \nframe=  309 fps=1.5 q=37.0 size=    2560KiB time=00:00:06.16 bitrate=3404.5kbits/s speed=0.029x elapsed=0:03:32.44    \nframe=  309 fps=1.5 q=37.0 size=    2560KiB time=00:00:06.16 bitrate=3404.5kbits/s speed=0.0289x elapsed=0:03:33.01    \nframe=  309 fps=1.4 q=37.0 size=    2560KiB time=00:00:06.16 bitrate=3404.5kbits/s speed=0.0288x elapsed=0:03:33.57    \nframe=  309 fps=1.4 q=37.0 size=    2560KiB time=00:00:06.16 bitrate=3404.5kbits/s speed=0.0288x elapsed=0:03:34.10    \nframe=  311 fps=1.4 q=37.0 size=    2560KiB time=00:00:06.20 bitrate=3382.5kbits/s speed=0.0289x elapsed=0:03:34.61    \nframe=  311 fps=1.4 q=37.0 size=    2560KiB time=00:00:06.20 bitrate=3382.5kbits/s speed=0.0288x elapsed=0:03:35.13    \nframe=  313 fps=1.5 q=39.0 size=    2560KiB time=00:00:06.24 bitrate=3360.8kbits/s speed=0.0289x elapsed=0:03:35.69    \nframe=  313 fps=1.4 q=39.0 size=    2560KiB time=00:00:06.24 bitrate=3360.8kbits/s speed=0.0289x elapsed=0:03:36.25    \nframe=  313 fps=1.4 q=39.0 size=    2560KiB time=00:00:06.24 bitrate=3360.8kbits/s speed=0.0288x elapsed=0:03:36.78    \nframe=  313 fps=1.4 q=39.0 size=    2560KiB time=00:00:06.24 bitrate=3360.8kbits/s speed=0.0287x elapsed=0:03:37.31    \nframe=  313 fps=1.4 q=39.0 size=    2560KiB time=00:00:06.24 bitrate=3360.8kbits/s speed=0.0286x elapsed=0:03:37.84    \nframe=  313 fps=1.4 q=39.0 size=    2560KiB time=00:00:06.24 bitrate=3360.8kbits/s speed=0.0286x elapsed=0:03:38.38    \nframe=  315 fps=1.4 q=39.0 size=    2560KiB time=00:00:06.28 bitrate=3339.4kbits/s speed=0.0286x elapsed=0:03:39.35    \nframe=  316 fps=1.4 q=41.0 size=    2560KiB time=00:00:06.28 bitrate=3339.4kbits/s speed=0.0285x elapsed=0:03:40.25    \nframe=  317 fps=1.4 q=36.0 size=    2560KiB time=00:00:06.32 bitrate=3318.3kbits/s speed=0.0286x elapsed=0:03:41.29    \nframe=  317 fps=1.4 q=36.0 size=    2560KiB time=00:00:06.32 bitrate=3318.3kbits/s speed=0.0285x elapsed=0:03:41.81    \nframe=  317 fps=1.4 q=36.0 size=    2560KiB time=00:00:06.32 bitrate=3318.3kbits/s speed=0.0284x elapsed=0:03:42.38    \nframe=  318 fps=1.4 q=41.0 size=    2560KiB time=00:00:06.34 bitrate=3307.8kbits/s speed=0.0284x elapsed=0:03:42.92    \nframe=  319 fps=1.4 q=39.0 size=    2560KiB time=00:00:06.36 bitrate=3297.4kbits/s speed=0.0285x elapsed=0:03:43.47    \nframe=  320 fps=1.4 q=41.0 size=    2560KiB time=00:00:06.38 bitrate=3287.1kbits/s speed=0.0285x elapsed=0:03:43.99    \nframe=  322 fps=1.4 q=25.0 size=    2560KiB time=00:00:06.42 bitrate=3266.6kbits/s speed=0.0286x elapsed=0:03:44.51    \nframe=  322 fps=1.4 q=25.0 size=    2560KiB time=00:00:06.42 bitrate=3266.6kbits/s speed=0.0285x elapsed=0:03:45.06    \nframe=  323 fps=1.4 q=42.0 size=    3072KiB time=00:00:06.44 bitrate=3907.7kbits/s speed=0.0285x elapsed=0:03:45.59    \nframe=  324 fps=1.4 q=41.0 size=    3072KiB time=00:00:06.46 bitrate=3895.6kbits/s speed=0.0286x elapsed=0:03:46.12    \nframe=  325 fps=1.4 q=41.0 size=    3072KiB time=00:00:06.48 bitrate=3883.6kbits/s speed=0.0286x elapsed=0:03:46.65    \nframe=  325 fps=1.4 q=41.0 size=    3072KiB time=00:00:06.48 bitrate=3883.6kbits/s speed=0.0285x elapsed=0:03:47.23    \nframe=  325 fps=1.4 q=41.0 size=    3072KiB time=00:00:06.48 bitrate=3883.6kbits/s speed=0.0285x elapsed=0:03:47.75    \nframe=  326 fps=1.4 q=39.0 size=    3072KiB time=00:00:06.50 bitrate=3871.7kbits/s speed=0.0285x elapsed=0:03:48.38    \nframe=  326 fps=1.4 q=39.0 size=    3072KiB time=00:00:06.50 bitrate=3871.7kbits/s speed=0.0284x elapsed=0:03:48.91    \nframe=  327 fps=1.4 q=41.0 size=    3072KiB time=00:00:06.52 bitrate=3859.8kbits/s speed=0.0284x elapsed=0:03:49.44    \nframe=  330 fps=1.4 q=36.0 size=    3072KiB time=00:00:06.56 bitrate=3836.3kbits/s speed=0.0285x elapsed=0:03:49.97    \nframe=  330 fps=1.4 q=36.0 size=    3072KiB time=00:00:06.58 bitrate=3824.6kbits/s speed=0.0285x elapsed=0:03:50.67    \nframe=  331 fps=1.4 q=41.0 size=    3072KiB time=00:00:06.60 bitrate=3813.0kbits/s speed=0.0285x elapsed=0:03:51.21    \nframe=  332 fps=1.4 q=39.0 size=    3072KiB time=00:00:06.62 bitrate=3801.5kbits/s speed=0.0286x elapsed=0:03:51.81    \nframe=  334 fps=1.4 q=36.0 size=    3072KiB time=00:00:06.66 bitrate=3778.7kbits/s speed=0.0287x elapsed=0:03:52.32    \nframe=  335 fps=1.4 q=41.0 size=    3072KiB time=00:00:06.68 bitrate=3767.3kbits/s speed=0.0287x elapsed=0:03:52.91    \nframe=  336 fps=1.4 q=39.0 size=    3072KiB time=00:00:06.70 bitrate=3756.1kbits/s speed=0.0287x elapsed=0:03:53.46    \nframe=  338 fps=1.4 q=27.0 size=    3072KiB time=00:00:06.74 bitrate=3733.8kbits/s speed=0.0288x elapsed=0:03:54.01    \nframe=  338 fps=1.4 q=27.0 size=    3072KiB time=00:00:06.74 bitrate=3733.8kbits/s speed=0.0287x elapsed=0:03:54.54    \nframe=  339 fps=1.4 q=42.0 size=    3072KiB time=00:00:06.76 bitrate=3722.8kbits/s speed=0.0288x elapsed=0:03:55.11    \nframe=  341 fps=1.4 q=42.0 size=    3072KiB time=00:00:06.78 bitrate=3711.8kbits/s speed=0.0288x elapsed=0:03:55.62    \nframe=  341 fps=1.4 q=42.0 size=    3072KiB time=00:00:06.80 bitrate=3700.9kbits/s speed=0.0288x elapsed=0:03:56.16    \nframe=  341 fps=1.4 q=42.0 size=    3072KiB time=00:00:06.80 bitrate=3700.9kbits/s speed=0.0287x elapsed=0:03:56.70    \nframe=  341 fps=1.4 q=42.0 size=    3072KiB time=00:00:06.80 bitrate=3700.9kbits/s speed=0.0287x elapsed=0:03:57.24    \nframe=  342 fps=1.4 q=39.0 size=    3072KiB time=00:00:06.82 bitrate=3690.0kbits/s speed=0.0287x elapsed=0:03:57.77    \nframe=  342 fps=1.4 q=39.0 size=    3072KiB time=00:00:06.82 bitrate=3690.0kbits/s speed=0.0286x elapsed=0:03:58.30    \nframe=  342 fps=1.4 q=39.0 size=    3072KiB time=00:00:06.82 bitrate=3690.0kbits/s speed=0.0285x elapsed=0:03:58.88    \nframe=  343 fps=1.4 q=40.0 size=    3072KiB time=00:00:06.84 bitrate=3679.2kbits/s speed=0.0286x elapsed=0:03:59.42    \nframe=  344 fps=1.4 q=37.0 size=    3072KiB time=00:00:06.86 bitrate=3668.5kbits/s speed=0.0286x elapsed=0:03:59.97    \nframe=  346 fps=1.4 q=35.0 size=    3072KiB time=00:00:06.90 bitrate=3647.2kbits/s speed=0.0287x elapsed=0:04:00.49    \nframe=  346 fps=1.4 q=35.0 size=    3072KiB time=00:00:06.90 bitrate=3647.2kbits/s speed=0.0286x elapsed=0:04:01.07    \nframe=  347 fps=1.4 q=42.0 size=    3072KiB time=00:00:06.92 bitrate=3636.7kbits/s speed=0.0286x elapsed=0:04:01.62    \nframe=  349 fps=1.4 q=42.0 size=    3072KiB time=00:00:06.96 bitrate=3615.8kbits/s speed=0.0287x elapsed=0:04:02.17    \nframe=  349 fps=1.4 q=42.0 size=    3072KiB time=00:00:06.96 bitrate=3615.8kbits/s speed=0.0287x elapsed=0:04:02.69    \nframe=  350 fps=1.4 q=36.0 size=    3072KiB time=00:00:06.98 bitrate=3605.4kbits/s speed=0.0287x elapsed=0:04:03.23    \nframe=  351 fps=1.4 q=41.0 size=    3072KiB time=00:00:07.00 bitrate=3595.1kbits/s speed=0.0287x elapsed=0:04:03.78    \nframe=  352 fps=1.4 q=38.0 size=    3072KiB time=00:00:07.02 bitrate=3584.9kbits/s speed=0.0287x elapsed=0:04:04.34    \nframe=  354 fps=1.4 q=25.0 size=    3072KiB time=00:00:07.06 bitrate=3564.6kbits/s speed=0.0288x elapsed=0:04:04.87    \nframe=  354 fps=1.4 q=25.0 size=    3072KiB time=00:00:07.06 bitrate=3564.6kbits/s speed=0.0288x elapsed=0:04:05.41    \nframe=  356 fps=1.4 q=41.0 size=    3072KiB time=00:00:07.10 bitrate=3544.5kbits/s speed=0.0289x elapsed=0:04:05.93    \nframe=  357 fps=1.4 q=42.0 size=    3072KiB time=00:00:07.12 bitrate=3534.5kbits/s speed=0.0289x elapsed=0:04:06.47    \nframe=  358 fps=1.4 q=38.0 size=    3072KiB time=00:00:07.14 bitrate=3524.6kbits/s speed=0.0289x elapsed=0:04:07.00    \nframe=  359 fps=1.5 q=42.0 size=    3072KiB time=00:00:07.16 bitrate=3514.8kbits/s speed=0.0289x elapsed=0:04:07.55    \nframe=  360 fps=1.5 q=41.0 size=    3072KiB time=00:00:07.18 bitrate=3505.0kbits/s speed=0.0289x elapsed=0:04:08.08    \nframe=  362 fps=1.5 q=33.0 size=    3072KiB time=00:00:07.22 bitrate=3485.6kbits/s speed=0.029x elapsed=0:04:08.60    \nframe=  362 fps=1.5 q=33.0 size=    3072KiB time=00:00:07.22 bitrate=3485.6kbits/s speed=0.029x elapsed=0:04:09.15    \nframe=  363 fps=1.5 q=42.0 size=    3072KiB time=00:00:07.24 bitrate=3475.9kbits/s speed=0.029x elapsed=0:04:09.69    \nframe=  364 fps=1.5 q=40.0 size=    3072KiB time=00:00:07.26 bitrate=3466.4kbits/s speed=0.029x elapsed=0:04:10.28    \nframe=  366 fps=1.5 q=36.0 size=    3072KiB time=00:00:07.30 bitrate=3447.4kbits/s speed=0.0291x elapsed=0:04:10.83    \nframe=  367 fps=1.5 q=42.0 size=    3072KiB time=00:00:07.32 bitrate=3438.0kbits/s speed=0.0291x elapsed=0:04:11.36    \nframe=  369 fps=1.5 q=42.0 size=    3072KiB time=00:00:07.36 bitrate=3419.3kbits/s speed=0.0292x elapsed=0:04:11.88    \nframe=  370 fps=1.5 q=23.0 size=    3072KiB time=00:00:07.38 bitrate=3410.0kbits/s speed=0.0292x elapsed=0:04:12.43    \nframe=  371 fps=1.5 q=43.0 size=    3072KiB time=00:00:07.40 bitrate=3400.8kbits/s speed=0.0293x elapsed=0:04:12.94    \nframe=  373 fps=1.5 q=43.0 size=    3072KiB time=00:00:07.42 bitrate=3391.6kbits/s speed=0.0293x elapsed=0:04:13.52    \nframe=  373 fps=1.5 q=43.0 size=    3072KiB time=00:00:07.44 bitrate=3382.5kbits/s speed=0.0293x elapsed=0:04:14.09    \nframe=  373 fps=1.5 q=43.0 size=    3072KiB time=00:00:07.44 bitrate=3382.5kbits/s speed=0.0292x elapsed=0:04:14.64    \nframe=  374 fps=1.5 q=39.0 size=    3072KiB time=00:00:07.46 bitrate=3373.4kbits/s speed=0.0292x elapsed=0:04:15.15    \nframe=  375 fps=1.5 q=41.0 size=    3072KiB time=00:00:07.48 bitrate=3364.4kbits/s speed=0.0293x elapsed=0:04:15.71    \nframe=  376 fps=1.5 q=38.0 size=    3072KiB time=00:00:07.50 bitrate=3355.4kbits/s speed=0.0293x elapsed=0:04:16.23    \nframe=  378 fps=1.5 q=34.0 size=    3072KiB time=00:00:07.54 bitrate=3337.6kbits/s speed=0.0294x elapsed=0:04:16.75    \nframe=  378 fps=1.5 q=34.0 size=    3072KiB time=00:00:07.54 bitrate=3337.6kbits/s speed=0.0293x elapsed=0:04:17.37    \nframe=  379 fps=1.5 q=43.0 size=    3072KiB time=00:00:07.56 bitrate=3328.8kbits/s speed=0.0293x elapsed=0:04:17.90    \nframe=  381 fps=1.5 q=43.0 size=    3072KiB time=00:00:07.60 bitrate=3311.3kbits/s speed=0.0294x elapsed=0:04:18.44    \nframe=  382 fps=1.5 q=37.0 size=    3072KiB time=00:00:07.62 bitrate=3302.6kbits/s speed=0.0294x elapsed=0:04:18.97    \nframe=  383 fps=1.5 q=42.0 size=    3072KiB time=00:00:07.64 bitrate=3294.0kbits/s speed=0.0294x elapsed=0:04:19.52    \nframe=  384 fps=1.5 q=40.0 size=    3072KiB time=00:00:07.66 bitrate=3285.4kbits/s speed=0.0295x elapsed=0:04:20.08    \nframe=  404 fps=1.6 q=42.0 size=    3072KiB time=00:00:08.06 bitrate=3122.3kbits/s speed=0.0309x elapsed=0:04:20.60    \nframe=  406 fps=1.6 q=40.0 size=    3072KiB time=00:00:08.10 bitrate=3106.9kbits/s speed=0.031x elapsed=0:04:21.13    \nframe=  406 fps=1.6 q=40.0 size=    3072KiB time=00:00:08.10 bitrate=3106.9kbits/s speed=0.031x elapsed=0:04:21.65    \nframe=  406 fps=1.5 q=40.0 size=    3072KiB time=00:00:08.10 bitrate=3106.9kbits/s speed=0.0309x elapsed=0:04:22.17    \nframe=  408 fps=1.6 q=39.0 size=    3072KiB time=00:00:08.14 bitrate=3091.6kbits/s speed=0.031x elapsed=0:04:22.67    \nframe=  410 fps=1.6 q=35.0 size=    3072KiB time=00:00:08.18 bitrate=3076.5kbits/s speed=0.0311x elapsed=0:04:23.19    \nframe=  410 fps=1.6 q=35.0 size=    3072KiB time=00:00:08.18 bitrate=3076.5kbits/s speed=0.031x elapsed=0:04:23.71    \nframe=  410 fps=1.6 q=35.0 size=    3072KiB time=00:00:08.18 bitrate=3076.5kbits/s speed=0.031x elapsed=0:04:24.25    \nframe=  410 fps=1.5 q=35.0 size=    3072KiB time=00:00:08.18 bitrate=3076.5kbits/s speed=0.0309x elapsed=0:04:24.79    \nframe=  410 fps=1.5 q=35.0 size=    3072KiB time=00:00:08.18 bitrate=3076.5kbits/s speed=0.0308x elapsed=0:04:25.33    \nframe=  410 fps=1.5 q=35.0 size=    3072KiB time=00:00:08.18 bitrate=3076.5kbits/s speed=0.0308x elapsed=0:04:25.86    \nframe=  410 fps=1.5 q=35.0 size=    3072KiB time=00:00:08.18 bitrate=3076.5kbits/s speed=0.0307x elapsed=0:04:26.37    \nframe=  412 fps=1.5 q=41.0 size=    3072KiB time=00:00:08.22 bitrate=3061.5kbits/s speed=0.0308x elapsed=0:04:26.88    \nframe=  412 fps=1.5 q=41.0 size=    3072KiB time=00:00:08.22 bitrate=3061.5kbits/s speed=0.0307x elapsed=0:04:27.42    \nframe=  414 fps=1.5 q=38.0 size=    3072KiB time=00:00:08.26 bitrate=3046.7kbits/s speed=0.0308x elapsed=0:04:27.95    \nframe=  414 fps=1.5 q=38.0 size=    3072KiB time=00:00:08.26 bitrate=3046.7kbits/s speed=0.0308x elapsed=0:04:28.54    \nframe=  414 fps=1.5 q=38.0 size=    3072KiB time=00:00:08.26 bitrate=3046.7kbits/s speed=0.0307x elapsed=0:04:29.10    \nframe=  418 fps=1.5 q=26.0 size=    3072KiB time=00:00:08.34 bitrate=3017.5kbits/s speed=0.0309x elapsed=0:04:29.69    \nframe=  418 fps=1.5 q=26.0 size=    3072KiB time=00:00:08.34 bitrate=3017.5kbits/s speed=0.0309x elapsed=0:04:30.24    \nframe=  418 fps=1.5 q=26.0 size=    3072KiB time=00:00:08.34 bitrate=3017.5kbits/s speed=0.0308x elapsed=0:04:30.75    \nframe=  420 fps=1.5 q=42.0 size=    3072KiB time=00:00:08.38 bitrate=3003.1kbits/s speed=0.0309x elapsed=0:04:31.33    \nframe=  420 fps=1.5 q=42.0 size=    3072KiB time=00:00:08.38 bitrate=3003.1kbits/s speed=0.0308x elapsed=0:04:31.86    \nframe=  422 fps=1.5 q=40.0 size=    3072KiB time=00:00:08.42 bitrate=2988.8kbits/s speed=0.0309x elapsed=0:04:32.40    \nframe=  422 fps=1.5 q=40.0 size=    3072KiB time=00:00:08.42 bitrate=2988.8kbits/s speed=0.0308x elapsed=0:04:32.95    \nframe=  424 fps=1.6 q=39.0 size=    3072KiB time=00:00:08.46 bitrate=2974.7kbits/s speed=0.0309x elapsed=0:04:33.48    \nframe=  426 fps=1.6 q=36.0 size=    3072KiB time=00:00:08.50 bitrate=2960.7kbits/s speed=0.031x elapsed=0:04:34.00    \nframe=  426 fps=1.6 q=36.0 size=    3072KiB time=00:00:08.50 bitrate=2960.7kbits/s speed=0.031x elapsed=0:04:34.56    \nframe=  426 fps=1.5 q=36.0 size=    3072KiB time=00:00:08.50 bitrate=2960.7kbits/s speed=0.0309x elapsed=0:04:35.10    \nframe=  426 fps=1.5 q=36.0 size=    3072KiB time=00:00:08.50 bitrate=2960.7kbits/s speed=0.0308x elapsed=0:04:35.64    \nframe=  428 fps=1.5 q=41.0 size=    3072KiB time=00:00:08.54 bitrate=2946.8kbits/s speed=0.0309x elapsed=0:04:36.19    \nframe=  428 fps=1.5 q=41.0 size=    3072KiB time=00:00:08.54 bitrate=2946.8kbits/s speed=0.0309x elapsed=0:04:36.74    \nframe=  430 fps=1.6 q=38.0 size=    3072KiB time=00:00:08.58 bitrate=2933.1kbits/s speed=0.0309x elapsed=0:04:37.27    \nframe=  430 fps=1.5 q=38.0 size=    3072KiB time=00:00:08.58 bitrate=2933.1kbits/s speed=0.0309x elapsed=0:04:37.81    \nframe=  430 fps=1.5 q=38.0 size=    3072KiB time=00:00:08.58 bitrate=2933.1kbits/s speed=0.0308x elapsed=0:04:38.33    \nframe=  432 fps=1.5 q=40.0 size=    3072KiB time=00:00:08.62 bitrate=2919.5kbits/s speed=0.0309x elapsed=0:04:38.91    \nframe=  434 fps=1.6 q=28.0 size=    3072KiB time=00:00:08.66 bitrate=2906.0kbits/s speed=0.031x elapsed=0:04:39.44    \nframe=  434 fps=1.6 q=28.0 size=    3072KiB time=00:00:08.66 bitrate=2906.0kbits/s speed=0.0309x elapsed=0:04:39.96    \nframe=  434 fps=1.5 q=28.0 size=    3072KiB time=00:00:08.66 bitrate=2906.0kbits/s speed=0.0309x elapsed=0:04:40.49    \nframe=  434 fps=1.5 q=28.0 size=    3072KiB time=00:00:08.66 bitrate=2906.0kbits/s speed=0.0308x elapsed=0:04:41.02    \nframe=  436 fps=1.5 q=42.0 size=    3072KiB time=00:00:08.70 bitrate=2892.6kbits/s speed=0.0309x elapsed=0:04:41.58    \nframe=  438 fps=1.6 q=40.0 size=    3072KiB time=00:00:08.74 bitrate=2879.4kbits/s speed=0.031x elapsed=0:04:42.10    \nframe=  438 fps=1.5 q=40.0 size=    3072KiB time=00:00:08.74 bitrate=2879.4kbits/s speed=0.0309x elapsed=0:04:42.61    \nframe=  438 fps=1.5 q=40.0 size=    3072KiB time=00:00:08.74 bitrate=2879.4kbits/s speed=0.0309x elapsed=0:04:43.17    \nframe=  440 fps=1.6 q=42.0 size=    3072KiB time=00:00:08.78 bitrate=2866.3kbits/s speed=0.0309x elapsed=0:04:43.73    \nframe=  442 fps=1.6 q=36.0 size=    3072KiB time=00:00:08.82 bitrate=2853.3kbits/s speed=0.031x elapsed=0:04:44.24    \nframe=  442 fps=1.6 q=36.0 size=    3072KiB time=00:00:08.82 bitrate=2853.3kbits/s speed=0.031x elapsed=0:04:44.78    \nframe=  442 fps=1.5 q=36.0 size=    3072KiB time=00:00:08.82 bitrate=2853.3kbits/s speed=0.0309x elapsed=0:04:45.30    \nframe=  442 fps=1.5 q=36.0 size=    3072KiB time=00:00:08.82 bitrate=2853.3kbits/s speed=0.0309x elapsed=0:04:45.84    \nframe=  442 fps=1.5 q=36.0 size=    3072KiB time=00:00:08.82 bitrate=2853.3kbits/s speed=0.0308x elapsed=0:04:46.35    \nframe=  442 fps=1.5 q=36.0 size=    3072KiB time=00:00:08.82 bitrate=2853.3kbits/s speed=0.0307x elapsed=0:04:46.86    \nframe=  442 fps=1.5 q=36.0 size=    3072KiB time=00:00:08.82 bitrate=2853.3kbits/s speed=0.0307x elapsed=0:04:47.38    \nframe=  444 fps=1.5 q=40.0 size=    3072KiB time=00:00:08.86 bitrate=2840.4kbits/s speed=0.0308x elapsed=0:04:47.94    \nframe=  446 fps=1.5 q=36.0 size=    3072KiB time=00:00:08.90 bitrate=2827.6kbits/s speed=0.0308x elapsed=0:04:48.49    \nframe=  446 fps=1.5 q=36.0 size=    3072KiB time=00:00:08.90 bitrate=2827.6kbits/s speed=0.0308x elapsed=0:04:49.03    \nframe=  446 fps=1.5 q=36.0 size=    3072KiB time=00:00:08.90 bitrate=2827.6kbits/s speed=0.0307x elapsed=0:04:49.64    \nframe=  446 fps=1.5 q=36.0 size=    3072KiB time=00:00:08.90 bitrate=2827.6kbits/s speed=0.0307x elapsed=0:04:50.16    \nframe=  448 fps=1.5 q=39.0 size=    3072KiB time=00:00:08.94 bitrate=2815.0kbits/s speed=0.0307x elapsed=0:04:50.73    \nframe=  450 fps=1.5 q=27.0 size=    3072KiB time=00:00:08.98 bitrate=2802.4kbits/s speed=0.0308x elapsed=0:04:51.24    \nframe=  450 fps=1.5 q=27.0 size=    3072KiB time=00:00:08.98 bitrate=2802.4kbits/s speed=0.0308x elapsed=0:04:51.76    \nframe=  450 fps=1.5 q=27.0 size=    3072KiB time=00:00:08.98 bitrate=2802.4kbits/s speed=0.0307x elapsed=0:04:52.27    \nframe=  452 fps=1.5 q=41.0 size=    3072KiB time=00:00:09.02 bitrate=2790.0kbits/s speed=0.0308x elapsed=0:04:52.81    \nframe=  452 fps=1.5 q=41.0 size=    3072KiB time=00:00:09.02 bitrate=2790.0kbits/s speed=0.0307x elapsed=0:04:53.34    \nframe=  454 fps=1.5 q=39.0 size=    3072KiB time=00:00:09.06 bitrate=2777.7kbits/s speed=0.0308x elapsed=0:04:53.90    \nframe=  454 fps=1.5 q=39.0 size=    3072KiB time=00:00:09.06 bitrate=2777.7kbits/s speed=0.0308x elapsed=0:04:54.47    \nframe=  454 fps=1.5 q=39.0 size=    3072KiB time=00:00:09.06 bitrate=2777.7kbits/s speed=0.0307x elapsed=0:04:55.01    \nframe=  456 fps=1.5 q=38.0 size=    3072KiB time=00:00:09.10 bitrate=2765.5kbits/s speed=0.0308x elapsed=0:04:55.54    \nframe=  458 fps=1.5 q=34.0 size=    3072KiB time=00:00:09.14 bitrate=2753.4kbits/s speed=0.0309x elapsed=0:04:56.07    \nframe=  458 fps=1.5 q=34.0 size=    3072KiB time=00:00:09.14 bitrate=2753.4kbits/s speed=0.0308x elapsed=0:04:56.60    \nframe=  458 fps=1.5 q=34.0 size=    3072KiB time=00:00:09.14 bitrate=2753.4kbits/s speed=0.0308x elapsed=0:04:57.12    \nframe=  458 fps=1.5 q=34.0 size=    3072KiB time=00:00:09.14 bitrate=2753.4kbits/s speed=0.0307x elapsed=0:04:57.67    \nframe=  458 fps=1.5 q=34.0 size=    3072KiB time=00:00:09.14 bitrate=2753.4kbits/s speed=0.0307x elapsed=0:04:58.18    \nframe=  460 fps=1.5 q=40.0 size=    3072KiB time=00:00:09.18 bitrate=2741.4kbits/s speed=0.0307x elapsed=0:04:58.71    \nframe=  462 fps=1.5 q=36.0 size=    3072KiB time=00:00:09.22 bitrate=2729.5kbits/s speed=0.0308x elapsed=0:04:59.28    \nframe=  462 fps=1.5 q=36.0 size=    3072KiB time=00:00:09.22 bitrate=2729.5kbits/s speed=0.0307x elapsed=0:04:59.86    \nframe=  464 fps=1.5 q=39.0 size=    3072KiB time=00:00:09.26 bitrate=2717.7kbits/s speed=0.0308x elapsed=0:05:00.42    \nframe=  466 fps=1.5 q=25.0 size=    3072KiB time=00:00:09.30 bitrate=2706.0kbits/s speed=0.0309x elapsed=0:05:01.03    \nframe=  466 fps=1.5 q=25.0 size=    3072KiB time=00:00:09.30 bitrate=2706.0kbits/s speed=0.0308x elapsed=0:05:01.56    \nframe=  466 fps=1.5 q=25.0 size=    3072KiB time=00:00:09.30 bitrate=2706.0kbits/s speed=0.0308x elapsed=0:05:02.11    \nframe=  468 fps=1.5 q=41.0 size=    3072KiB time=00:00:09.34 bitrate=2694.4kbits/s speed=0.0309x elapsed=0:05:02.64    \nframe=  468 fps=1.5 q=41.0 size=    3072KiB time=00:00:09.34 bitrate=2694.4kbits/s speed=0.0308x elapsed=0:05:03.19    \nframe=  470 fps=1.5 q=39.0 size=    3072KiB time=00:00:09.38 bitrate=2682.9kbits/s speed=0.0309x elapsed=0:05:03.72    \nframe=  470 fps=1.5 q=39.0 size=    3072KiB time=00:00:09.38 bitrate=2682.9kbits/s speed=0.0308x elapsed=0:05:04.26    \nframe=  470 fps=1.5 q=39.0 size=    3072KiB time=00:00:09.38 bitrate=2682.9kbits/s speed=0.0308x elapsed=0:05:04.79    \nframe=  470 fps=1.5 q=39.0 size=    3072KiB time=00:00:09.38 bitrate=2682.9kbits/s speed=0.0307x elapsed=0:05:05.37    \nframe=  472 fps=1.5 q=38.0 size=    3072KiB time=00:00:09.42 bitrate=2671.5kbits/s speed=0.0308x elapsed=0:05:05.90    \nframe=  474 fps=1.5 q=34.0 size=    3072KiB time=00:00:09.46 bitrate=2660.2kbits/s speed=0.0309x elapsed=0:05:06.44    \nframe=  474 fps=1.5 q=34.0 size=    3072KiB time=00:00:09.46 bitrate=2660.2kbits/s speed=0.0308x elapsed=0:05:06.98    \nframe=  474 fps=1.5 q=34.0 size=    3072KiB time=00:00:09.46 bitrate=2660.2kbits/s speed=0.0308x elapsed=0:05:07.55    \nframe=  474 fps=1.5 q=34.0 size=    3072KiB time=00:00:09.46 bitrate=2660.2kbits/s speed=0.0307x elapsed=0:05:08.08    \nframe=  474 fps=1.5 q=34.0 size=    3072KiB time=00:00:09.46 bitrate=2660.2kbits/s speed=0.0306x elapsed=0:05:08.64    \nframe=  474 fps=1.5 q=34.0 size=    3072KiB time=00:00:09.46 bitrate=2660.2kbits/s speed=0.0306x elapsed=0:05:09.17    \nframe=  476 fps=1.5 q=42.0 size=    3072KiB time=00:00:09.50 bitrate=2649.0kbits/s speed=0.0307x elapsed=0:05:09.68    \nframe=  478 fps=1.5 q=41.0 size=    3072KiB time=00:00:09.54 bitrate=2637.9kbits/s speed=0.0308x elapsed=0:05:10.23    \nframe=  478 fps=1.5 q=41.0 size=    3072KiB time=00:00:09.54 bitrate=2637.9kbits/s speed=0.0307x elapsed=0:05:10.78    \nframe=  478 fps=1.5 q=41.0 size=    3072KiB time=00:00:09.54 bitrate=2637.9kbits/s speed=0.0306x elapsed=0:05:11.34    \nframe=  478 fps=1.5 q=41.0 size=    3072KiB time=00:00:09.54 bitrate=2637.9kbits/s speed=0.0306x elapsed=0:05:11.88    \nframe=  480 fps=1.5 q=43.0 size=    3072KiB time=00:00:09.58 bitrate=2626.9kbits/s speed=0.0307x elapsed=0:05:12.41    \nframe=  482 fps=1.5 q=25.0 size=    3072KiB time=00:00:09.62 bitrate=2616.0kbits/s speed=0.0307x elapsed=0:05:12.93    \nframe=  484 fps=1.5 q=43.0 size=    3072KiB time=00:00:09.66 bitrate=2605.2kbits/s speed=0.0308x elapsed=0:05:13.44    \nframe=  486 fps=1.5 q=43.0 size=    3072KiB time=00:00:09.70 bitrate=2594.4kbits/s speed=0.0309x elapsed=0:05:13.96    \nframe=  486 fps=1.5 q=43.0 size=    3072KiB time=00:00:09.70 bitrate=2594.4kbits/s speed=0.0308x elapsed=0:05:14.52    \nframe=  486 fps=1.5 q=43.0 size=    3072KiB time=00:00:09.70 bitrate=2594.4kbits/s speed=0.0308x elapsed=0:05:15.04    \nframe=  488 fps=1.5 q=43.0 size=    3072KiB time=00:00:09.74 bitrate=2583.8kbits/s speed=0.0309x elapsed=0:05:15.60    \nframe=  490 fps=1.5 q=41.0 size=    3072KiB time=00:00:09.78 bitrate=2573.2kbits/s speed=0.0309x elapsed=0:05:16.14    \nframe=  490 fps=1.5 q=41.0 size=    3072KiB time=00:00:09.78 bitrate=2573.2kbits/s speed=0.0309x elapsed=0:05:16.66    \nframe=  490 fps=1.5 q=41.0 size=    3072KiB time=00:00:09.78 bitrate=2573.2kbits/s speed=0.0308x elapsed=0:05:17.18    \nframe=  490 fps=1.5 q=41.0 size=    3072KiB time=00:00:09.78 bitrate=2573.2kbits/s speed=0.0308x elapsed=0:05:17.75    \nframe=  492 fps=1.5 q=43.0 size=    3072KiB time=00:00:09.82 bitrate=2562.7kbits/s speed=0.0308x elapsed=0:05:18.33    \nframe=  494 fps=1.5 q=43.0 size=    3072KiB time=00:00:09.82 bitrate=2562.7kbits/s speed=0.0308x elapsed=0:05:18.95    \nframe=  494 fps=1.5 q=43.0 size=    3072KiB time=00:00:09.86 bitrate=2552.3kbits/s speed=0.0309x elapsed=0:05:19.55    \nframe=  494 fps=1.5 q=43.0 size=    3072KiB time=00:00:09.86 bitrate=2552.3kbits/s speed=0.0308x elapsed=0:05:20.09    \nframe=  496 fps=1.5 q=43.0 size=    3072KiB time=00:00:09.90 bitrate=2542.0kbits/s speed=0.0309x elapsed=0:05:20.63    \n[out#0/matroska @ 000002cdd4689c40] video:4851KiB audio:0KiB subtitle:0KiB other streams:0KiB global headers:0KiB muxing overhead: 0.060055%\nframe=  500 fps=1.6 q=39.0 Lsize=    4854KiB time=00:00:09.98 bitrate=3984.0kbits/s speed=0.0311x elapsed=0:05:20.88    \n",
  "seconds": 322.6949553489685,
  "probe_out": {}
}